{"asset":{"version":"2.0","generator":"Castlehold original medieval mesh authoring v4 / Fieldcraft","extras":{"buffer_sha256":"065ef44172e5d789eb40f8adb42273275078afecee5f71d38188a413f564f2e1"}},"scene":0,"scenes":[{"nodes":[0,24]}],"nodes":[{"name":"root","translation":[0,0,0],"children":[1]},{"name":"hips","translation":[0,1.0,0],"children":[2,10,13,23]},{"name":"chest","translation":[0,0.37,0.045],"children":[3,4,7,16]},{"name":"head","translation":[0,0.43,-0.09],"children":[17,22]},{"name":"upper_arm_L","translation":[-0.43,0.2,0],"children":[5]},{"name":"forearm_L","translation":[0,-0.3,0],"children":[6]},{"name":"hand_L","translation":[0,-0.24,0],"children":[18]},{"name":"upper_arm_R","translation":[0.43,0.2,0],"children":[8]},{"name":"forearm_R","translation":[0,-0.3,0],"children":[9]},{"name":"hand_R","translation":[0,-0.24,0],"children":[19]},{"name":"thigh_L","translation":[-0.16,-0.06,0],"children":[11]},{"name":"shin_L","translation":[0,-0.39,0],"children":[12]},{"name":"foot_L","translation":[0,-0.37,0],"children":[20]},{"name":"thigh_R","translation":[0.16,-0.06,0],"children":[14]},{"name":"shin_R","translation":[0,-0.39,0],"children":[15]},{"name":"foot_R","translation":[0,-0.37,0],"children":[21]},{"name":"neck","translation":[0,0.3,0]},{"name":"jaw","translation":[0,-0.14,-0.06]},{"name":"thumb_L","translation":[0.06,0,-0.02]},{"name":"thumb_R","translation":[-0.06,0,-0.02]},{"name":"toe_L","translation":[0,-0.01,-0.13]},{"name":"toe_R","translation":[0,-0.01,-0.13]},{"name":"plume","translation":[0,0.25,0.06]},{"name":"tabard","translation":[0,-0.14,-0.19]},{"name":"Enemy_Spearman","mesh":0,"skin":0}],"skins":[{"inverseBindMatrices":6,"joints":[0,1,2,3,4,5,6,7,8,9,10,11,12,13,14,15,16,17,18,19,20,21,22,23],"skeleton":0}],"meshes":[{"primitives":[{"attributes":{"POSITION":0,"NORMAL":1,"COLOR_0":2,"TEXCOORD_0":5,"JOINTS_0":3,"WEIGHTS_0":4},"material":0}]}],"materials":[{"name":"Fieldcraft cloth, linked mail, forged steel and skin","pbrMetallicRoughness":{"baseColorFactor":[1,1,1,1],"baseColorTexture":{"index":0},"metallicFactor":1,"roughnessFactor":1,"metallicRoughnessTexture":{"index":2}},"normalTexture":{"index":1,"scale":0.42},"doubleSided":true}],"images":[{"uri":"fieldcraft_albedo.png"},{"uri":"fieldcraft_normal.png"},{"uri":"fieldcraft_orm.png"}],"textures":[{"source":0,"sampler":0},{"source":1,"sampler":0},{"source":2,"sampler":0}],"samplers":[{"magFilter":9729,"minFilter":9987,"wrapS":33071,"wrapT":33071}],"buffers":[{"uri":"enemy_spearman.bin","byteLength":1414224}],"bufferViews":[{"buffer":0,"byteOffset":0,"byteLength":231048},{"buffer":0,"byteOffset":231048,"byteLength":231048},{"buffer":0,"byteOffset":462096,"byteLength":308064},{"buffer":0,"byteOffset":770160,"byteLength":154032},{"buffer":0,"byteOffset":924192,"byteLength":308064},{"buffer":0,"byteOffset":1232256,"byteLength":154032},{"buffer":0,"byteOffset":1386288,"byteLength":1536},{"buffer":0,"byteOffset":1387824,"byteLength":20},{"buffer":0,"byteOffset":1387844,"byteLength":80},{"buffer":0,"byteOffset":1387924,"byteLength":20},{"buffer":0,"byteOffset":1387944,"byteLength":80},{"buffer":0,"byteOffset":1388024,"byteLength":20},{"buffer":0,"byteOffset":1388044,"byteLength":80},{"buffer":0,"byteOffset":1388124,"byteLength":20},{"buffer":0,"byteOffset":1388144,"byteLength":80},{"buffer":0,"byteOffset":1388224,"byteLength":20},{"buffer":0,"byteOffset":1388244,"byteLength":80},{"buffer":0,"byteOffset":1388324,"byteLength":20},{"buffer":0,"byteOffset":1388344,"byteLength":80},{"buffer":0,"byteOffset":1388424,"byteLength":20},{"buffer":0,"byteOffset":1388444,"byteLength":80},{"buffer":0,"byteOffset":1388524,"byteLength":20},{"buffer":0,"byteOffset":1388544,"byteLength":80},{"buffer":0,"byteOffset":1388624,"byteLength":20},{"buffer":0,"byteOffset":1388644,"byteLength":80},{"buffer":0,"byteOffset":1388724,"byteLength":20},{"buffer":0,"byteOffset":1388744,"byteLength":80},{"buffer":0,"byteOffset":1388824,"byteLength":20},{"buffer":0,"byteOffset":1388844,"byteLength":80},{"buffer":0,"byteOffset":1388924,"byteLength":20},{"buffer":0,"byteOffset":1388944,"byteLength":80},{"buffer":0,"byteOffset":1389024,"byteLength":20},{"buffer":0,"byteOffset":1389044,"byteLength":80},{"buffer":0,"byteOffset":1389124,"byteLength":20},{"buffer":0,"byteOffset":1389144,"byteLength":80},{"buffer":0,"byteOffset":1389224,"byteLength":20},{"buffer":0,"byteOffset":1389244,"byteLength":80},{"buffer":0,"byteOffset":1389324,"byteLength":20},{"buffer":0,"byteOffset":1389344,"byteLength":80},{"buffer":0,"byteOffset":1389424,"byteLength":20},{"buffer":0,"byteOffset":1389444,"byteLength":80},{"buffer":0,"byteOffset":1389524,"byteLength":20},{"buffer":0,"byteOffset":1389544,"byteLength":80},{"buffer":0,"byteOffset":1389624,"byteLength":20},{"buffer":0,"byteOffset":1389644,"byteLength":80},{"buffer":0,"byteOffset":1389724,"byteLength":20},{"buffer":0,"byteOffset":1389744,"byteLength":80},{"buffer":0,"byteOffset":1389824,"byteLength":20},{"buffer":0,"byteOffset":1389844,"byteLength":80},{"buffer":0,"byteOffset":1389924,"byteLength":20},{"buffer":0,"byteOffset":1389944,"byteLength":80},{"buffer":0,"byteOffset":1390024,"byteLength":20},{"buffer":0,"byteOffset":1390044,"byteLength":80},{"buffer":0,"byteOffset":1390124,"byteLength":20},{"buffer":0,"byteOffset":1390144,"byteLength":80},{"buffer":0,"byteOffset":1390224,"byteLength":20},{"buffer":0,"byteOffset":1390244,"byteLength":80},{"buffer":0,"byteOffset":1390324,"byteLength":20},{"buffer":0,"byteOffset":1390344,"byteLength":80},{"buffer":0,"byteOffset":1390424,"byteLength":20},{"buffer":0,"byteOffset":1390444,"byteLength":80},{"buffer":0,"byteOffset":1390524,"byteLength":20},{"buffer":0,"byteOffset":1390544,"byteLength":80},{"buffer":0,"byteOffset":1390624,"byteLength":20},{"buffer":0,"byteOffset":1390644,"byteLength":80},{"buffer":0,"byteOffset":1390724,"byteLength":20},{"buffer":0,"byteOffset":1390744,"byteLength":80},{"buffer":0,"byteOffset":1390824,"byteLength":20},{"buffer":0,"byteOffset":1390844,"byteLength":80},{"buffer":0,"byteOffset":1390924,"byteLength":20},{"buffer":0,"byteOffset":1390944,"byteLength":80},{"buffer":0,"byteOffset":1391024,"byteLength":20},{"buffer":0,"byteOffset":1391044,"byteLength":80},{"buffer":0,"byteOffset":1391124,"byteLength":20},{"buffer":0,"byteOffset":1391144,"byteLength":80},{"buffer":0,"byteOffset":1391224,"byteLength":20},{"buffer":0,"byteOffset":1391244,"byteLength":80},{"buffer":0,"byteOffset":1391324,"byteLength":20},{"buffer":0,"byteOffset":1391344,"byteLength":80},{"buffer":0,"byteOffset":1391424,"byteLength":20},{"buffer":0,"byteOffset":1391444,"byteLength":80},{"buffer":0,"byteOffset":1391524,"byteLength":20},{"buffer":0,"byteOffset":1391544,"byteLength":80},{"buffer":0,"byteOffset":1391624,"byteLength":20},{"buffer":0,"byteOffset":1391644,"byteLength":80},{"buffer":0,"byteOffset":1391724,"byteLength":20},{"buffer":0,"byteOffset":1391744,"byteLength":80},{"buffer":0,"byteOffset":1391824,"byteLength":20},{"buffer":0,"byteOffset":1391844,"byteLength":80},{"buffer":0,"byteOffset":1391924,"byteLength":20},{"buffer":0,"byteOffset":1391944,"byteLength":80},{"buffer":0,"byteOffset":1392024,"byteLength":20},{"buffer":0,"byteOffset":1392044,"byteLength":80},{"buffer":0,"byteOffset":1392124,"byteLength":20},{"buffer":0,"byteOffset":1392144,"byteLength":80},{"buffer":0,"byteOffset":1392224,"byteLength":20},{"buffer":0,"byteOffset":1392244,"byteLength":80},{"buffer":0,"byteOffset":1392324,"byteLength":20},{"buffer":0,"byteOffset":1392344,"byteLength":80},{"buffer":0,"byteOffset":1392424,"byteLength":20},{"buffer":0,"byteOffset":1392444,"byteLength":80},{"buffer":0,"byteOffset":1392524,"byteLength":20},{"buffer":0,"byteOffset":1392544,"byteLength":80},{"buffer":0,"byteOffset":1392624,"byteLength":20},{"buffer":0,"byteOffset":1392644,"byteLength":80},{"buffer":0,"byteOffset":1392724,"byteLength":20},{"buffer":0,"byteOffset":1392744,"byteLength":80},{"buffer":0,"byteOffset":1392824,"byteLength":20},{"buffer":0,"byteOffset":1392844,"byteLength":80},{"buffer":0,"byteOffset":1392924,"byteLength":20},{"buffer":0,"byteOffset":1392944,"byteLength":80},{"buffer":0,"byteOffset":1393024,"byteLength":20},{"buffer":0,"byteOffset":1393044,"byteLength":80},{"buffer":0,"byteOffset":1393124,"byteLength":20},{"buffer":0,"byteOffset":1393144,"byteLength":80},{"buffer":0,"byteOffset":1393224,"byteLength":20},{"buffer":0,"byteOffset":1393244,"byteLength":80},{"buffer":0,"byteOffset":1393324,"byteLength":20},{"buffer":0,"byteOffset":1393344,"byteLength":80},{"buffer":0,"byteOffset":1393424,"byteLength":20},{"buffer":0,"byteOffset":1393444,"byteLength":80},{"buffer":0,"byteOffset":1393524,"byteLength":20},{"buffer":0,"byteOffset":1393544,"byteLength":80},{"buffer":0,"byteOffset":1393624,"byteLength":20},{"buffer":0,"byteOffset":1393644,"byteLength":80},{"buffer":0,"byteOffset":1393724,"byteLength":20},{"buffer":0,"byteOffset":1393744,"byteLength":80},{"buffer":0,"byteOffset":1393824,"byteLength":20},{"buffer":0,"byteOffset":1393844,"byteLength":80},{"buffer":0,"byteOffset":1393924,"byteLength":20},{"buffer":0,"byteOffset":1393944,"byteLength":80},{"buffer":0,"byteOffset":1394024,"byteLength":20},{"buffer":0,"byteOffset":1394044,"byteLength":80},{"buffer":0,"byteOffset":1394124,"byteLength":20},{"buffer":0,"byteOffset":1394144,"byteLength":80},{"buffer":0,"byteOffset":1394224,"byteLength":20},{"buffer":0,"byteOffset":1394244,"byteLength":80},{"buffer":0,"byteOffset":1394324,"byteLength":20},{"buffer":0,"byteOffset":1394344,"byteLength":80},{"buffer":0,"byteOffset":1394424,"byteLength":20},{"buffer":0,"byteOffset":1394444,"byteLength":80},{"buffer":0,"byteOffset":1394524,"byteLength":20},{"buffer":0,"byteOffset":1394544,"byteLength":80},{"buffer":0,"byteOffset":1394624,"byteLength":20},{"buffer":0,"byteOffset":1394644,"byteLength":80},{"buffer":0,"byteOffset":1394724,"byteLength":20},{"buffer":0,"byteOffset":1394744,"byteLength":80},{"buffer":0,"byteOffset":1394824,"byteLength":20},{"buffer":0,"byteOffset":1394844,"byteLength":80},{"buffer":0,"byteOffset":1394924,"byteLength":20},{"buffer":0,"byteOffset":1394944,"byteLength":80},{"buffer":0,"byteOffset":1395024,"byteLength":20},{"buffer":0,"byteOffset":1395044,"byteLength":80},{"buffer":0,"byteOffset":1395124,"byteLength":20},{"buffer":0,"byteOffset":1395144,"byteLength":80},{"buffer":0,"byteOffset":1395224,"byteLength":20},{"buffer":0,"byteOffset":1395244,"byteLength":80},{"buffer":0,"byteOffset":1395324,"byteLength":20},{"buffer":0,"byteOffset":1395344,"byteLength":80},{"buffer":0,"byteOffset":1395424,"byteLength":20},{"buffer":0,"byteOffset":1395444,"byteLength":80},{"buffer":0,"byteOffset":1395524,"byteLength":20},{"buffer":0,"byteOffset":1395544,"byteLength":80},{"buffer":0,"byteOffset":1395624,"byteLength":20},{"buffer":0,"byteOffset":1395644,"byteLength":80},{"buffer":0,"byteOffset":1395724,"byteLength":20},{"buffer":0,"byteOffset":1395744,"byteLength":80},{"buffer":0,"byteOffset":1395824,"byteLength":20},{"buffer":0,"byteOffset":1395844,"byteLength":80},{"buffer":0,"byteOffset":1395924,"byteLength":20},{"buffer":0,"byteOffset":1395944,"byteLength":80},{"buffer":0,"byteOffset":1396024,"byteLength":20},{"buffer":0,"byteOffset":1396044,"byteLength":80},{"buffer":0,"byteOffset":1396124,"byteLength":20},{"buffer":0,"byteOffset":1396144,"byteLength":80},{"buffer":0,"byteOffset":1396224,"byteLength":20},{"buffer":0,"byteOffset":1396244,"byteLength":80},{"buffer":0,"byteOffset":1396324,"byteLength":20},{"buffer":0,"byteOffset":1396344,"byteLength":80},{"buffer":0,"byteOffset":1396424,"byteLength":20},{"buffer":0,"byteOffset":1396444,"byteLength":80},{"buffer":0,"byteOffset":1396524,"byteLength":20},{"buffer":0,"byteOffset":1396544,"byteLength":80},{"buffer":0,"byteOffset":1396624,"byteLength":20},{"buffer":0,"byteOffset":1396644,"byteLength":80},{"buffer":0,"byteOffset":1396724,"byteLength":20},{"buffer":0,"byteOffset":1396744,"byteLength":80},{"buffer":0,"byteOffset":1396824,"byteLength":20},{"buffer":0,"byteOffset":1396844,"byteLength":80},{"buffer":0,"byteOffset":1396924,"byteLength":20},{"buffer":0,"byteOffset":1396944,"byteLength":80},{"buffer":0,"byteOffset":1397024,"byteLength":20},{"buffer":0,"byteOffset":1397044,"byteLength":80},{"buffer":0,"byteOffset":1397124,"byteLength":20},{"buffer":0,"byteOffset":1397144,"byteLength":80},{"buffer":0,"byteOffset":1397224,"byteLength":20},{"buffer":0,"byteOffset":1397244,"byteLength":80},{"buffer":0,"byteOffset":1397324,"byteLength":20},{"buffer":0,"byteOffset":1397344,"byteLength":80},{"buffer":0,"byteOffset":1397424,"byteLength":20},{"buffer":0,"byteOffset":1397444,"byteLength":80},{"buffer":0,"byteOffset":1397524,"byteLength":20},{"buffer":0,"byteOffset":1397544,"byteLength":80},{"buffer":0,"byteOffset":1397624,"byteLength":20},{"buffer":0,"byteOffset":1397644,"byteLength":80},{"buffer":0,"byteOffset":1397724,"byteLength":20},{"buffer":0,"byteOffset":1397744,"byteLength":80},{"buffer":0,"byteOffset":1397824,"byteLength":20},{"buffer":0,"byteOffset":1397844,"byteLength":80},{"buffer":0,"byteOffset":1397924,"byteLength":20},{"buffer":0,"byteOffset":1397944,"byteLength":80},{"buffer":0,"byteOffset":1398024,"byteLength":20},{"buffer":0,"byteOffset":1398044,"byteLength":80},{"buffer":0,"byteOffset":1398124,"byteLength":20},{"buffer":0,"byteOffset":1398144,"byteLength":80},{"buffer":0,"byteOffset":1398224,"byteLength":20},{"buffer":0,"byteOffset":1398244,"byteLength":80},{"buffer":0,"byteOffset":1398324,"byteLength":20},{"buffer":0,"byteOffset":1398344,"byteLength":80},{"buffer":0,"byteOffset":1398424,"byteLength":20},{"buffer":0,"byteOffset":1398444,"byteLength":80},{"buffer":0,"byteOffset":1398524,"byteLength":20},{"buffer":0,"byteOffset":1398544,"byteLength":80},{"buffer":0,"byteOffset":1398624,"byteLength":20},{"buffer":0,"byteOffset":1398644,"byteLength":80},{"buffer":0,"byteOffset":1398724,"byteLength":20},{"buffer":0,"byteOffset":1398744,"byteLength":80},{"buffer":0,"byteOffset":1398824,"byteLength":20},{"buffer":0,"byteOffset":1398844,"byteLength":80},{"buffer":0,"byteOffset":1398924,"byteLength":20},{"buffer":0,"byteOffset":1398944,"byteLength":80},{"buffer":0,"byteOffset":1399024,"byteLength":20},{"buffer":0,"byteOffset":1399044,"byteLength":80},{"buffer":0,"byteOffset":1399124,"byteLength":20},{"buffer":0,"byteOffset":1399144,"byteLength":80},{"buffer":0,"byteOffset":1399224,"byteLength":20},{"buffer":0,"byteOffset":1399244,"byteLength":80},{"buffer":0,"byteOffset":1399324,"byteLength":20},{"buffer":0,"byteOffset":1399344,"byteLength":80},{"buffer":0,"byteOffset":1399424,"byteLength":20},{"buffer":0,"byteOffset":1399444,"byteLength":80},{"buffer":0,"byteOffset":1399524,"byteLength":20},{"buffer":0,"byteOffset":1399544,"byteLength":80},{"buffer":0,"byteOffset":1399624,"byteLength":20},{"buffer":0,"byteOffset":1399644,"byteLength":80},{"buffer":0,"byteOffset":1399724,"byteLength":20},{"buffer":0,"byteOffset":1399744,"byteLength":80},{"buffer":0,"byteOffset":1399824,"byteLength":20},{"buffer":0,"byteOffset":1399844,"byteLength":80},{"buffer":0,"byteOffset":1399924,"byteLength":20},{"buffer":0,"byteOffset":1399944,"byteLength":80},{"buffer":0,"byteOffset":1400024,"byteLength":20},{"buffer":0,"byteOffset":1400044,"byteLength":80},{"buffer":0,"byteOffset":1400124,"byteLength":20},{"buffer":0,"byteOffset":1400144,"byteLength":80},{"buffer":0,"byteOffset":1400224,"byteLength":20},{"buffer":0,"byteOffset":1400244,"byteLength":80},{"buffer":0,"byteOffset":1400324,"byteLength":20},{"buffer":0,"byteOffset":1400344,"byteLength":80},{"buffer":0,"byteOffset":1400424,"byteLength":20},{"buffer":0,"byteOffset":1400444,"byteLength":80},{"buffer":0,"byteOffset":1400524,"byteLength":20},{"buffer":0,"byteOffset":1400544,"byteLength":80},{"buffer":0,"byteOffset":1400624,"byteLength":20},{"buffer":0,"byteOffset":1400644,"byteLength":80},{"buffer":0,"byteOffset":1400724,"byteLength":20},{"buffer":0,"byteOffset":1400744,"byteLength":80},{"buffer":0,"byteOffset":1400824,"byteLength":20},{"buffer":0,"byteOffset":1400844,"byteLength":80},{"buffer":0,"byteOffset":1400924,"byteLength":20},{"buffer":0,"byteOffset":1400944,"byteLength":80},{"buffer":0,"byteOffset":1401024,"byteLength":20},{"buffer":0,"byteOffset":1401044,"byteLength":80},{"buffer":0,"byteOffset":1401124,"byteLength":20},{"buffer":0,"byteOffset":1401144,"byteLength":80},{"buffer":0,"byteOffset":1401224,"byteLength":20},{"buffer":0,"byteOffset":1401244,"byteLength":80},{"buffer":0,"byteOffset":1401324,"byteLength":20},{"buffer":0,"byteOffset":1401344,"byteLength":80},{"buffer":0,"byteOffset":1401424,"byteLength":20},{"buffer":0,"byteOffset":1401444,"byteLength":80},{"buffer":0,"byteOffset":1401524,"byteLength":20},{"buffer":0,"byteOffset":1401544,"byteLength":80},{"buffer":0,"byteOffset":1401624,"byteLength":20},{"buffer":0,"byteOffset":1401644,"byteLength":80},{"buffer":0,"byteOffset":1401724,"byteLength":20},{"buffer":0,"byteOffset":1401744,"byteLength":80},{"buffer":0,"byteOffset":1401824,"byteLength":20},{"buffer":0,"byteOffset":1401844,"byteLength":80},{"buffer":0,"byteOffset":1401924,"byteLength":20},{"buffer":0,"byteOffset":1401944,"byteLength":80},{"buffer":0,"byteOffset":1402024,"byteLength":20},{"buffer":0,"byteOffset":1402044,"byteLength":80},{"buffer":0,"byteOffset":1402124,"byteLength":20},{"buffer":0,"byteOffset":1402144,"byteLength":80},{"buffer":0,"byteOffset":1402224,"byteLength":20},{"buffer":0,"byteOffset":1402244,"byteLength":80},{"buffer":0,"byteOffset":1402324,"byteLength":20},{"buffer":0,"byteOffset":1402344,"byteLength":80},{"buffer":0,"byteOffset":1402424,"byteLength":20},{"buffer":0,"byteOffset":1402444,"byteLength":80},{"buffer":0,"byteOffset":1402524,"byteLength":20},{"buffer":0,"byteOffset":1402544,"byteLength":80},{"buffer":0,"byteOffset":1402624,"byteLength":20},{"buffer":0,"byteOffset":1402644,"byteLength":80},{"buffer":0,"byteOffset":1402724,"byteLength":20},{"buffer":0,"byteOffset":1402744,"byteLength":80},{"buffer":0,"byteOffset":1402824,"byteLength":20},{"buffer":0,"byteOffset":1402844,"byteLength":80},{"buffer":0,"byteOffset":1402924,"byteLength":20},{"buffer":0,"byteOffset":1402944,"byteLength":80},{"buffer":0,"byteOffset":1403024,"byteLength":20},{"buffer":0,"byteOffset":1403044,"byteLength":80},{"buffer":0,"byteOffset":1403124,"byteLength":20},{"buffer":0,"byteOffset":1403144,"byteLength":80},{"buffer":0,"byteOffset":1403224,"byteLength":20},{"buffer":0,"byteOffset":1403244,"byteLength":80},{"buffer":0,"byteOffset":1403324,"byteLength":20},{"buffer":0,"byteOffset":1403344,"byteLength":80},{"buffer":0,"byteOffset":1403424,"byteLength":20},{"buffer":0,"byteOffset":1403444,"byteLength":80},{"buffer":0,"byteOffset":1403524,"byteLength":20},{"buffer":0,"byteOffset":1403544,"byteLength":80},{"buffer":0,"byteOffset":1403624,"byteLength":20},{"buffer":0,"byteOffset":1403644,"byteLength":80},{"buffer":0,"byteOffset":1403724,"byteLength":20},{"buffer":0,"byteOffset":1403744,"byteLength":80},{"buffer":0,"byteOffset":1403824,"byteLength":20},{"buffer":0,"byteOffset":1403844,"byteLength":80},{"buffer":0,"byteOffset":1403924,"byteLength":20},{"buffer":0,"byteOffset":1403944,"byteLength":80},{"buffer":0,"byteOffset":1404024,"byteLength":20},{"buffer":0,"byteOffset":1404044,"byteLength":80},{"buffer":0,"byteOffset":1404124,"byteLength":20},{"buffer":0,"byteOffset":1404144,"byteLength":80},{"buffer":0,"byteOffset":1404224,"byteLength":20},{"buffer":0,"byteOffset":1404244,"byteLength":80},{"buffer":0,"byteOffset":1404324,"byteLength":20},{"buffer":0,"byteOffset":1404344,"byteLength":80},{"buffer":0,"byteOffset":1404424,"byteLength":20},{"buffer":0,"byteOffset":1404444,"byteLength":80},{"buffer":0,"byteOffset":1404524,"byteLength":20},{"buffer":0,"byteOffset":1404544,"byteLength":80},{"buffer":0,"byteOffset":1404624,"byteLength":20},{"buffer":0,"byteOffset":1404644,"byteLength":80},{"buffer":0,"byteOffset":1404724,"byteLength":20},{"buffer":0,"byteOffset":1404744,"byteLength":80},{"buffer":0,"byteOffset":1404824,"byteLength":20},{"buffer":0,"byteOffset":1404844,"byteLength":80},{"buffer":0,"byteOffset":1404924,"byteLength":20},{"buffer":0,"byteOffset":1404944,"byteLength":80},{"buffer":0,"byteOffset":1405024,"byteLength":20},{"buffer":0,"byteOffset":1405044,"byteLength":80},{"buffer":0,"byteOffset":1405124,"byteLength":20},{"buffer":0,"byteOffset":1405144,"byteLength":80},{"buffer":0,"byteOffset":1405224,"byteLength":20},{"buffer":0,"byteOffset":1405244,"byteLength":80},{"buffer":0,"byteOffset":1405324,"byteLength":20},{"buffer":0,"byteOffset":1405344,"byteLength":80},{"buffer":0,"byteOffset":1405424,"byteLength":20},{"buffer":0,"byteOffset":1405444,"byteLength":80},{"buffer":0,"byteOffset":1405524,"byteLength":20},{"buffer":0,"byteOffset":1405544,"byteLength":80},{"buffer":0,"byteOffset":1405624,"byteLength":20},{"buffer":0,"byteOffset":1405644,"byteLength":80},{"buffer":0,"byteOffset":1405724,"byteLength":20},{"buffer":0,"byteOffset":1405744,"byteLength":80},{"buffer":0,"byteOffset":1405824,"byteLength":20},{"buffer":0,"byteOffset":1405844,"byteLength":80},{"buffer":0,"byteOffset":1405924,"byteLength":20},{"buffer":0,"byteOffset":1405944,"byteLength":80},{"buffer":0,"byteOffset":1406024,"byteLength":20},{"buffer":0,"byteOffset":1406044,"byteLength":80},{"buffer":0,"byteOffset":1406124,"byteLength":20},{"buffer":0,"byteOffset":1406144,"byteLength":80},{"buffer":0,"byteOffset":1406224,"byteLength":20},{"buffer":0,"byteOffset":1406244,"byteLength":80},{"buffer":0,"byteOffset":1406324,"byteLength":20},{"buffer":0,"byteOffset":1406344,"byteLength":80},{"buffer":0,"byteOffset":1406424,"byteLength":20},{"buffer":0,"byteOffset":1406444,"byteLength":80},{"buffer":0,"byteOffset":1406524,"byteLength":20},{"buffer":0,"byteOffset":1406544,"byteLength":80},{"buffer":0,"byteOffset":1406624,"byteLength":20},{"buffer":0,"byteOffset":1406644,"byteLength":80},{"buffer":0,"byteOffset":1406724,"byteLength":20},{"buffer":0,"byteOffset":1406744,"byteLength":80},{"buffer":0,"byteOffset":1406824,"byteLength":20},{"buffer":0,"byteOffset":1406844,"byteLength":80},{"buffer":0,"byteOffset":1406924,"byteLength":20},{"buffer":0,"byteOffset":1406944,"byteLength":80},{"buffer":0,"byteOffset":1407024,"byteLength":20},{"buffer":0,"byteOffset":1407044,"byteLength":80},{"buffer":0,"byteOffset":1407124,"byteLength":20},{"buffer":0,"byteOffset":1407144,"byteLength":80},{"buffer":0,"byteOffset":1407224,"byteLength":20},{"buffer":0,"byteOffset":1407244,"byteLength":80},{"buffer":0,"byteOffset":1407324,"byteLength":20},{"buffer":0,"byteOffset":1407344,"byteLength":80},{"buffer":0,"byteOffset":1407424,"byteLength":20},{"buffer":0,"byteOffset":1407444,"byteLength":80},{"buffer":0,"byteOffset":1407524,"byteLength":20},{"buffer":0,"byteOffset":1407544,"byteLength":80},{"buffer":0,"byteOffset":1407624,"byteLength":20},{"buffer":0,"byteOffset":1407644,"byteLength":80},{"buffer":0,"byteOffset":1407724,"byteLength":20},{"buffer":0,"byteOffset":1407744,"byteLength":80},{"buffer":0,"byteOffset":1407824,"byteLength":20},{"buffer":0,"byteOffset":1407844,"byteLength":80},{"buffer":0,"byteOffset":1407924,"byteLength":20},{"buffer":0,"byteOffset":1407944,"byteLength":80},{"buffer":0,"byteOffset":1408024,"byteLength":20},{"buffer":0,"byteOffset":1408044,"byteLength":80},{"buffer":0,"byteOffset":1408124,"byteLength":20},{"buffer":0,"byteOffset":1408144,"byteLength":80},{"buffer":0,"byteOffset":1408224,"byteLength":20},{"buffer":0,"byteOffset":1408244,"byteLength":80},{"buffer":0,"byteOffset":1408324,"byteLength":20},{"buffer":0,"byteOffset":1408344,"byteLength":80},{"buffer":0,"byteOffset":1408424,"byteLength":20},{"buffer":0,"byteOffset":1408444,"byteLength":80},{"buffer":0,"byteOffset":1408524,"byteLength":20},{"buffer":0,"byteOffset":1408544,"byteLength":80},{"buffer":0,"byteOffset":1408624,"byteLength":20},{"buffer":0,"byteOffset":1408644,"byteLength":80},{"buffer":0,"byteOffset":1408724,"byteLength":20},{"buffer":0,"byteOffset":1408744,"byteLength":80},{"buffer":0,"byteOffset":1408824,"byteLength":20},{"buffer":0,"byteOffset":1408844,"byteLength":80},{"buffer":0,"byteOffset":1408924,"byteLength":20},{"buffer":0,"byteOffset":1408944,"byteLength":80},{"buffer":0,"byteOffset":1409024,"byteLength":20},{"buffer":0,"byteOffset":1409044,"byteLength":80},{"buffer":0,"byteOffset":1409124,"byteLength":20},{"buffer":0,"byteOffset":1409144,"byteLength":80},{"buffer":0,"byteOffset":1409224,"byteLength":20},{"buffer":0,"byteOffset":1409244,"byteLength":80},{"buffer":0,"byteOffset":1409324,"byteLength":20},{"buffer":0,"byteOffset":1409344,"byteLength":80},{"buffer":0,"byteOffset":1409424,"byteLength":20},{"buffer":0,"byteOffset":1409444,"byteLength":80},{"buffer":0,"byteOffset":1409524,"byteLength":20},{"buffer":0,"byteOffset":1409544,"byteLength":80},{"buffer":0,"byteOffset":1409624,"byteLength":20},{"buffer":0,"byteOffset":1409644,"byteLength":80},{"buffer":0,"byteOffset":1409724,"byteLength":20},{"buffer":0,"byteOffset":1409744,"byteLength":80},{"buffer":0,"byteOffset":1409824,"byteLength":20},{"buffer":0,"byteOffset":1409844,"byteLength":80},{"buffer":0,"byteOffset":1409924,"byteLength":20},{"buffer":0,"byteOffset":1409944,"byteLength":80},{"buffer":0,"byteOffset":1410024,"byteLength":20},{"buffer":0,"byteOffset":1410044,"byteLength":80},{"buffer":0,"byteOffset":1410124,"byteLength":20},{"buffer":0,"byteOffset":1410144,"byteLength":80},{"buffer":0,"byteOffset":1410224,"byteLength":20},{"buffer":0,"byteOffset":1410244,"byteLength":80},{"buffer":0,"byteOffset":1410324,"byteLength":20},{"buffer":0,"byteOffset":1410344,"byteLength":80},{"buffer":0,"byteOffset":1410424,"byteLength":20},{"buffer":0,"byteOffset":1410444,"byteLength":80},{"buffer":0,"byteOffset":1410524,"byteLength":20},{"buffer":0,"byteOffset":1410544,"byteLength":80},{"buffer":0,"byteOffset":1410624,"byteLength":20},{"buffer":0,"byteOffset":1410644,"byteLength":80},{"buffer":0,"byteOffset":1410724,"byteLength":20},{"buffer":0,"byteOffset":1410744,"byteLength":80},{"buffer":0,"byteOffset":1410824,"byteLength":20},{"buffer":0,"byteOffset":1410844,"byteLength":80},{"buffer":0,"byteOffset":1410924,"byteLength":20},{"buffer":0,"byteOffset":1410944,"byteLength":80},{"buffer":0,"byteOffset":1411024,"byteLength":20},{"buffer":0,"byteOffset":1411044,"byteLength":80},{"buffer":0,"byteOffset":1411124,"byteLength":20},{"buffer":0,"byteOffset":1411144,"byteLength":80},{"buffer":0,"byteOffset":1411224,"byteLength":20},{"buffer":0,"byteOffset":1411244,"byteLength":80},{"buffer":0,"byteOffset":1411324,"byteLength":20},{"buffer":0,"byteOffset":1411344,"byteLength":80},{"buffer":0,"byteOffset":1411424,"byteLength":20},{"buffer":0,"byteOffset":1411444,"byteLength":80},{"buffer":0,"byteOffset":1411524,"byteLength":20},{"buffer":0,"byteOffset":1411544,"byteLength":80},{"buffer":0,"byteOffset":1411624,"byteLength":20},{"buffer":0,"byteOffset":1411644,"byteLength":80},{"buffer":0,"byteOffset":1411724,"byteLength":20},{"buffer":0,"byteOffset":1411744,"byteLength":80},{"buffer":0,"byteOffset":1411824,"byteLength":20},{"buffer":0,"byteOffset":1411844,"byteLength":80},{"buffer":0,"byteOffset":1411924,"byteLength":20},{"buffer":0,"byteOffset":1411944,"byteLength":80},{"buffer":0,"byteOffset":1412024,"byteLength":20},{"buffer":0,"byteOffset":1412044,"byteLength":80},{"buffer":0,"byteOffset":1412124,"byteLength":20},{"buffer":0,"byteOffset":1412144,"byteLength":80},{"buffer":0,"byteOffset":1412224,"byteLength":20},{"buffer":0,"byteOffset":1412244,"byteLength":80},{"buffer":0,"byteOffset":1412324,"byteLength":20},{"buffer":0,"byteOffset":1412344,"byteLength":80},{"buffer":0,"byteOffset":1412424,"byteLength":20},{"buffer":0,"byteOffset":1412444,"byteLength":80},{"buffer":0,"byteOffset":1412524,"byteLength":20},{"buffer":0,"byteOffset":1412544,"byteLength":80},{"buffer":0,"byteOffset":1412624,"byteLength":20},{"buffer":0,"byteOffset":1412644,"byteLength":80},{"buffer":0,"byteOffset":1412724,"byteLength":20},{"buffer":0,"byteOffset":1412744,"byteLength":80},{"buffer":0,"byteOffset":1412824,"byteLength":20},{"buffer":0,"byteOffset":1412844,"byteLength":80},{"buffer":0,"byteOffset":1412924,"byteLength":20},{"buffer":0,"byteOffset":1412944,"byteLength":80},{"buffer":0,"byteOffset":1413024,"byteLength":20},{"buffer":0,"byteOffset":1413044,"byteLength":80},{"buffer":0,"byteOffset":1413124,"byteLength":20},{"buffer":0,"byteOffset":1413144,"byteLength":80},{"buffer":0,"byteOffset":1413224,"byteLength":20},{"buffer":0,"byteOffset":1413244,"byteLength":80},{"buffer":0,"byteOffset":1413324,"byteLength":20},{"buffer":0,"byteOffset":1413344,"byteLength":80},{"buffer":0,"byteOffset":1413424,"byteLength":20},{"buffer":0,"byteOffset":1413444,"byteLength":80},{"buffer":0,"byteOffset":1413524,"byteLength":20},{"buffer":0,"byteOffset":1413544,"byteLength":80},{"buffer":0,"byteOffset":1413624,"byteLength":20},{"buffer":0,"byteOffset":1413644,"byteLength":80},{"buffer":0,"byteOffset":1413724,"byteLength":20},{"buffer":0,"byteOffset":1413744,"byteLength":80},{"buffer":0,"byteOffset":1413824,"byteLength":20},{"buffer":0,"byteOffset":1413844,"byteLength":80},{"buffer":0,"byteOffset":1413924,"byteLength":20},{"buffer":0,"byteOffset":1413944,"byteLength":80},{"buffer":0,"byteOffset":1414024,"byteLength":20},{"buffer":0,"byteOffset":1414044,"byteLength":80},{"buffer":0,"byteOffset":1414124,"byteLength":20},{"buffer":0,"byteOffset":1414144,"byteLength":80}],"accessors":[{"bufferView":0,"componentType":5126,"count":19254,"type":"VEC3","min":[-0.76,0.08999999999999993,-0.38447604358790993],"max":[0.6799999999999999,3.13,0.32848125716727417]},{"bufferView":1,"componentType":5126,"count":19254,"type":"VEC3","min":[-1.0,-1.0,-1.0],"max":[1.0,1.0,1.0]},{"bufferView":2,"componentType":5126,"count":19254,"type":"VEC4"},{"bufferView":3,"componentType":5123,"count":19254,"type":"VEC4"},{"bufferView":4,"componentType":5126,"count":19254,"type":"VEC4"},{"bufferView":5,"componentType":5126,"count":19254,"type":"VEC2"},{"bufferView":6,"componentType":5126,"count":24,"type":"MAT4"},{"bufferView":7,"componentType":5126,"count":5,"type":"SCALAR","min":[0.0],"max":[2.4]},{"bufferView":8,"componentType":5126,"count":5,"type":"VEC4"},{"bufferView":9,"componentType":5126,"count":5,"type":"SCALAR","min":[0.0],"max":[2.4]},{"bufferView":10,"componentType":5126,"count":5,"type":"VEC4"},{"bufferView":11,"componentType":5126,"count":5,"type":"SCALAR","min":[0.0],"max":[2.4]},{"bufferView":12,"componentType":5126,"count":5,"type":"VEC4"},{"bufferView":13,"componentType":5126,"count":5,"type":"SCALAR","min":[0.0],"max":[2.4]},{"bufferView":14,"componentType":5126,"count":5,"type":"VEC4"},{"bufferView":15,"componentType":5126,"count":5,"type":"SCALAR","min":[0.0],"max":[2.4]},{"bufferView":16,"componentType":5126,"count":5,"type":"VEC4"},{"bufferView":17,"componentType":5126,"count":5,"type":"SCALAR","min":[0.0],"max":[2.4]},{"bufferView":18,"componentType":5126,"count":5,"type":"VEC4"},{"bufferView":19,"componentType":5126,"count":5,"type":"SCALAR","min":[0.0],"max":[2.4]},{"bufferView":20,"componentType":5126,"count":5,"type":"VEC4"},{"bufferView":21,"componentType":5126,"count":5,"type":"SCALAR","min":[0.0],"max":[2.4]},{"bufferView":22,"componentType":5126,"count":5,"type":"VEC4"},{"bufferView":23,"componentType":5126,"count":5,"type":"SCALAR","min":[0.0],"max":[2.4]},{"bufferView":24,"componentType":5126,"count":5,"type":"VEC4"},{"bufferView":25,"componentType":5126,"count":5,"type":"SCALAR","min":[0.0],"max":[2.4]},{"bufferView":26,"componentType":5126,"count":5,"type":"VEC4"},{"bufferView":27,"componentType":5126,"count":5,"type":"SCALAR","min":[0.0],"max":[2.4]},{"bufferView":28,"componentType":5126,"count":5,"type":"VEC4"},{"bufferView":29,"componentType":5126,"count":5,"type":"SCALAR","min":[0.0],"max":[2.4]},{"bufferView":30,"componentType":5126,"count":5,"type":"VEC4"},{"bufferView":31,"componentType":5126,"count":5,"type":"SCALAR","min":[0.0],"max":[2.4]},{"bufferView":32,"componentType":5126,"count":5,"type":"VEC4"},{"bufferView":33,"componentType":5126,"count":5,"type":"SCALAR","min":[0.0],"max":[2.4]},{"bufferView":34,"componentType":5126,"count":5,"type":"VEC4"},{"bufferView":35,"componentType":5126,"count":5,"type":"SCALAR","min":[0.0],"max":[2.4]},{"bufferView":36,"componentType":5126,"count":5,"type":"VEC4"},{"bufferView":37,"componentType":5126,"count":5,"type":"SCALAR","min":[0.0],"max":[2.4]},{"bufferView":38,"componentType":5126,"count":5,"type":"VEC4"},{"bufferView":39,"componentType":5126,"count":5,"type":"SCALAR","min":[0.0],"max":[2.4]},{"bufferView":40,"componentType":5126,"count":5,"type":"VEC4"},{"bufferView":41,"componentType":5126,"count":5,"type":"SCALAR","min":[0.0],"max":[2.4]},{"bufferView":42,"componentType":5126,"count":5,"type":"VEC4"},{"bufferView":43,"componentType":5126,"count":5,"type":"SCALAR","min":[0.0],"max":[2.4]},{"bufferView":44,"componentType":5126,"count":5,"type":"VEC4"},{"bufferView":45,"componentType":5126,"count":5,"type":"SCALAR","min":[0.0],"max":[2.4]},{"bufferView":46,"componentType":5126,"count":5,"type":"VEC4"},{"bufferView":47,"componentType":5126,"count":5,"type":"SCALAR","min":[0.0],"max":[2.4]},{"bufferView":48,"componentType":5126,"count":5,"type":"VEC4"},{"bufferView":49,"componentType":5126,"count":5,"type":"SCALAR","min":[0.0],"max":[2.4]},{"bufferView":50,"componentType":5126,"count":5,"type":"VEC4"},{"bufferView":51,"componentType":5126,"count":5,"type":"SCALAR","min":[0.0],"max":[2.4]},{"bufferView":52,"componentType":5126,"count":5,"type":"VEC4"},{"bufferView":53,"componentType":5126,"count":5,"type":"SCALAR","min":[0.0],"max":[2.4]},{"bufferView":54,"componentType":5126,"count":5,"type":"VEC4"},{"bufferView":55,"componentType":5126,"count":5,"type":"SCALAR","min":[0.0],"max":[0.85]},{"bufferView":56,"componentType":5126,"count":5,"type":"VEC4"},{"bufferView":57,"componentType":5126,"count":5,"type":"SCALAR","min":[0.0],"max":[0.85]},{"bufferView":58,"componentType":5126,"count":5,"type":"VEC4"},{"bufferView":59,"componentType":5126,"count":5,"type":"SCALAR","min":[0.0],"max":[0.85]},{"bufferView":60,"componentType":5126,"count":5,"type":"VEC4"},{"bufferView":61,"componentType":5126,"count":5,"type":"SCALAR","min":[0.0],"max":[0.85]},{"bufferView":62,"componentType":5126,"count":5,"type":"VEC4"},{"bufferView":63,"componentType":5126,"count":5,"type":"SCALAR","min":[0.0],"max":[0.85]},{"bufferView":64,"componentType":5126,"count":5,"type":"VEC4"},{"bufferView":65,"componentType":5126,"count":5,"type":"SCALAR","min":[0.0],"max":[0.85]},{"bufferView":66,"componentType":5126,"count":5,"type":"VEC4"},{"bufferView":67,"componentType":5126,"count":5,"type":"SCALAR","min":[0.0],"max":[0.85]},{"bufferView":68,"componentType":5126,"count":5,"type":"VEC4"},{"bufferView":69,"componentType":5126,"count":5,"type":"SCALAR","min":[0.0],"max":[0.85]},{"bufferView":70,"componentType":5126,"count":5,"type":"VEC4"},{"bufferView":71,"componentType":5126,"count":5,"type":"SCALAR","min":[0.0],"max":[0.85]},{"bufferView":72,"componentType":5126,"count":5,"type":"VEC4"},{"bufferView":73,"componentType":5126,"count":5,"type":"SCALAR","min":[0.0],"max":[0.85]},{"bufferView":74,"componentType":5126,"count":5,"type":"VEC4"},{"bufferView":75,"componentType":5126,"count":5,"type":"SCALAR","min":[0.0],"max":[0.85]},{"bufferView":76,"componentType":5126,"count":5,"type":"VEC4"},{"bufferView":77,"componentType":5126,"count":5,"type":"SCALAR","min":[0.0],"max":[0.85]},{"bufferView":78,"componentType":5126,"count":5,"type":"VEC4"},{"bufferView":79,"componentType":5126,"count":5,"type":"SCALAR","min":[0.0],"max":[0.85]},{"bufferView":80,"componentType":5126,"count":5,"type":"VEC4"},{"bufferView":81,"componentType":5126,"count":5,"type":"SCALAR","min":[0.0],"max":[0.85]},{"bufferView":82,"componentType":5126,"count":5,"type":"VEC4"},{"bufferView":83,"componentType":5126,"count":5,"type":"SCALAR","min":[0.0],"max":[0.85]},{"bufferView":84,"componentType":5126,"count":5,"type":"VEC4"},{"bufferView":85,"componentType":5126,"count":5,"type":"SCALAR","min":[0.0],"max":[0.85]},{"bufferView":86,"componentType":5126,"count":5,"type":"VEC4"},{"bufferView":87,"componentType":5126,"count":5,"type":"SCALAR","min":[0.0],"max":[0.85]},{"bufferView":88,"componentType":5126,"count":5,"type":"VEC4"},{"bufferView":89,"componentType":5126,"count":5,"type":"SCALAR","min":[0.0],"max":[0.85]},{"bufferView":90,"componentType":5126,"count":5,"type":"VEC4"},{"bufferView":91,"componentType":5126,"count":5,"type":"SCALAR","min":[0.0],"max":[0.85]},{"bufferView":92,"componentType":5126,"count":5,"type":"VEC4"},{"bufferView":93,"componentType":5126,"count":5,"type":"SCALAR","min":[0.0],"max":[0.85]},{"bufferView":94,"componentType":5126,"count":5,"type":"VEC4"},{"bufferView":95,"componentType":5126,"count":5,"type":"SCALAR","min":[0.0],"max":[0.85]},{"bufferView":96,"componentType":5126,"count":5,"type":"VEC4"},{"bufferView":97,"componentType":5126,"count":5,"type":"SCALAR","min":[0.0],"max":[0.85]},{"bufferView":98,"componentType":5126,"count":5,"type":"VEC4"},{"bufferView":99,"componentType":5126,"count":5,"type":"SCALAR","min":[0.0],"max":[0.85]},{"bufferView":100,"componentType":5126,"count":5,"type":"VEC4"},{"bufferView":101,"componentType":5126,"count":5,"type":"SCALAR","min":[0.0],"max":[0.85]},{"bufferView":102,"componentType":5126,"count":5,"type":"VEC4"},{"bufferView":103,"componentType":5126,"count":5,"type":"SCALAR","min":[0.0],"max":[0.6]},{"bufferView":104,"componentType":5126,"count":5,"type":"VEC4"},{"bufferView":105,"componentType":5126,"count":5,"type":"SCALAR","min":[0.0],"max":[0.6]},{"bufferView":106,"componentType":5126,"count":5,"type":"VEC4"},{"bufferView":107,"componentType":5126,"count":5,"type":"SCALAR","min":[0.0],"max":[0.6]},{"bufferView":108,"componentType":5126,"count":5,"type":"VEC4"},{"bufferView":109,"componentType":5126,"count":5,"type":"SCALAR","min":[0.0],"max":[0.6]},{"bufferView":110,"componentType":5126,"count":5,"type":"VEC4"},{"bufferView":111,"componentType":5126,"count":5,"type":"SCALAR","min":[0.0],"max":[0.6]},{"bufferView":112,"componentType":5126,"count":5,"type":"VEC4"},{"bufferView":113,"componentType":5126,"count":5,"type":"SCALAR","min":[0.0],"max":[0.6]},{"bufferView":114,"componentType":5126,"count":5,"type":"VEC4"},{"bufferView":115,"componentType":5126,"count":5,"type":"SCALAR","min":[0.0],"max":[0.6]},{"bufferView":116,"componentType":5126,"count":5,"type":"VEC4"},{"bufferView":117,"componentType":5126,"count":5,"type":"SCALAR","min":[0.0],"max":[0.6]},{"bufferView":118,"componentType":5126,"count":5,"type":"VEC4"},{"bufferView":119,"componentType":5126,"count":5,"type":"SCALAR","min":[0.0],"max":[0.6]},{"bufferView":120,"componentType":5126,"count":5,"type":"VEC4"},{"bufferView":121,"componentType":5126,"count":5,"type":"SCALAR","min":[0.0],"max":[0.6]},{"bufferView":122,"componentType":5126,"count":5,"type":"VEC4"},{"bufferView":123,"componentType":5126,"count":5,"type":"SCALAR","min":[0.0],"max":[0.6]},{"bufferView":124,"componentType":5126,"count":5,"type":"VEC4"},{"bufferView":125,"componentType":5126,"count":5,"type":"SCALAR","min":[0.0],"max":[0.6]},{"bufferView":126,"componentType":5126,"count":5,"type":"VEC4"},{"bufferView":127,"componentType":5126,"count":5,"type":"SCALAR","min":[0.0],"max":[0.6]},{"bufferView":128,"componentType":5126,"count":5,"type":"VEC4"},{"bufferView":129,"componentType":5126,"count":5,"type":"SCALAR","min":[0.0],"max":[0.6]},{"bufferView":130,"componentType":5126,"count":5,"type":"VEC4"},{"bufferView":131,"componentType":5126,"count":5,"type":"SCALAR","min":[0.0],"max":[0.6]},{"bufferView":132,"componentType":5126,"count":5,"type":"VEC4"},{"bufferView":133,"componentType":5126,"count":5,"type":"SCALAR","min":[0.0],"max":[0.6]},{"bufferView":134,"componentType":5126,"count":5,"type":"VEC4"},{"bufferView":135,"componentType":5126,"count":5,"type":"SCALAR","min":[0.0],"max":[0.6]},{"bufferView":136,"componentType":5126,"count":5,"type":"VEC4"},{"bufferView":137,"componentType":5126,"count":5,"type":"SCALAR","min":[0.0],"max":[0.6]},{"bufferView":138,"componentType":5126,"count":5,"type":"VEC4"},{"bufferView":139,"componentType":5126,"count":5,"type":"SCALAR","min":[0.0],"max":[0.6]},{"bufferView":140,"componentType":5126,"count":5,"type":"VEC4"},{"bufferView":141,"componentType":5126,"count":5,"type":"SCALAR","min":[0.0],"max":[0.6]},{"bufferView":142,"componentType":5126,"count":5,"type":"VEC4"},{"bufferView":143,"componentType":5126,"count":5,"type":"SCALAR","min":[0.0],"max":[0.6]},{"bufferView":144,"componentType":5126,"count":5,"type":"VEC4"},{"bufferView":145,"componentType":5126,"count":5,"type":"SCALAR","min":[0.0],"max":[0.6]},{"bufferView":146,"componentType":5126,"count":5,"type":"VEC4"},{"bufferView":147,"componentType":5126,"count":5,"type":"SCALAR","min":[0.0],"max":[0.6]},{"bufferView":148,"componentType":5126,"count":5,"type":"VEC4"},{"bufferView":149,"componentType":5126,"count":5,"type":"SCALAR","min":[0.0],"max":[0.6]},{"bufferView":150,"componentType":5126,"count":5,"type":"VEC4"},{"bufferView":151,"componentType":5126,"count":5,"type":"SCALAR","min":[0.0],"max":[0.95]},{"bufferView":152,"componentType":5126,"count":5,"type":"VEC4"},{"bufferView":153,"componentType":5126,"count":5,"type":"SCALAR","min":[0.0],"max":[0.95]},{"bufferView":154,"componentType":5126,"count":5,"type":"VEC4"},{"bufferView":155,"componentType":5126,"count":5,"type":"SCALAR","min":[0.0],"max":[0.95]},{"bufferView":156,"componentType":5126,"count":5,"type":"VEC4"},{"bufferView":157,"componentType":5126,"count":5,"type":"SCALAR","min":[0.0],"max":[0.95]},{"bufferView":158,"componentType":5126,"count":5,"type":"VEC4"},{"bufferView":159,"componentType":5126,"count":5,"type":"SCALAR","min":[0.0],"max":[0.95]},{"bufferView":160,"componentType":5126,"count":5,"type":"VEC4"},{"bufferView":161,"componentType":5126,"count":5,"type":"SCALAR","min":[0.0],"max":[0.95]},{"bufferView":162,"componentType":5126,"count":5,"type":"VEC4"},{"bufferView":163,"componentType":5126,"count":5,"type":"SCALAR","min":[0.0],"max":[0.95]},{"bufferView":164,"componentType":5126,"count":5,"type":"VEC4"},{"bufferView":165,"componentType":5126,"count":5,"type":"SCALAR","min":[0.0],"max":[0.95]},{"bufferView":166,"componentType":5126,"count":5,"type":"VEC4"},{"bufferView":167,"componentType":5126,"count":5,"type":"SCALAR","min":[0.0],"max":[0.95]},{"bufferView":168,"componentType":5126,"count":5,"type":"VEC4"},{"bufferView":169,"componentType":5126,"count":5,"type":"SCALAR","min":[0.0],"max":[0.95]},{"bufferView":170,"componentType":5126,"count":5,"type":"VEC4"},{"bufferView":171,"componentType":5126,"count":5,"type":"SCALAR","min":[0.0],"max":[0.95]},{"bufferView":172,"componentType":5126,"count":5,"type":"VEC4"},{"bufferView":173,"componentType":5126,"count":5,"type":"SCALAR","min":[0.0],"max":[0.95]},{"bufferView":174,"componentType":5126,"count":5,"type":"VEC4"},{"bufferView":175,"componentType":5126,"count":5,"type":"SCALAR","min":[0.0],"max":[0.95]},{"bufferView":176,"componentType":5126,"count":5,"type":"VEC4"},{"bufferView":177,"componentType":5126,"count":5,"type":"SCALAR","min":[0.0],"max":[0.95]},{"bufferView":178,"componentType":5126,"count":5,"type":"VEC4"},{"bufferView":179,"componentType":5126,"count":5,"type":"SCALAR","min":[0.0],"max":[0.95]},{"bufferView":180,"componentType":5126,"count":5,"type":"VEC4"},{"bufferView":181,"componentType":5126,"count":5,"type":"SCALAR","min":[0.0],"max":[0.95]},{"bufferView":182,"componentType":5126,"count":5,"type":"VEC4"},{"bufferView":183,"componentType":5126,"count":5,"type":"SCALAR","min":[0.0],"max":[0.95]},{"bufferView":184,"componentType":5126,"count":5,"type":"VEC4"},{"bufferView":185,"componentType":5126,"count":5,"type":"SCALAR","min":[0.0],"max":[0.95]},{"bufferView":186,"componentType":5126,"count":5,"type":"VEC4"},{"bufferView":187,"componentType":5126,"count":5,"type":"SCALAR","min":[0.0],"max":[0.95]},{"bufferView":188,"componentType":5126,"count":5,"type":"VEC4"},{"bufferView":189,"componentType":5126,"count":5,"type":"SCALAR","min":[0.0],"max":[0.95]},{"bufferView":190,"componentType":5126,"count":5,"type":"VEC4"},{"bufferView":191,"componentType":5126,"count":5,"type":"SCALAR","min":[0.0],"max":[0.95]},{"bufferView":192,"componentType":5126,"count":5,"type":"VEC4"},{"bufferView":193,"componentType":5126,"count":5,"type":"SCALAR","min":[0.0],"max":[0.95]},{"bufferView":194,"componentType":5126,"count":5,"type":"VEC4"},{"bufferView":195,"componentType":5126,"count":5,"type":"SCALAR","min":[0.0],"max":[0.95]},{"bufferView":196,"componentType":5126,"count":5,"type":"VEC4"},{"bufferView":197,"componentType":5126,"count":5,"type":"SCALAR","min":[0.0],"max":[0.95]},{"bufferView":198,"componentType":5126,"count":5,"type":"VEC4"},{"bufferView":199,"componentType":5126,"count":5,"type":"SCALAR","min":[0.0],"max":[0.95]},{"bufferView":200,"componentType":5126,"count":5,"type":"VEC4"},{"bufferView":201,"componentType":5126,"count":5,"type":"SCALAR","min":[0.0],"max":[0.95]},{"bufferView":202,"componentType":5126,"count":5,"type":"VEC4"},{"bufferView":203,"componentType":5126,"count":5,"type":"SCALAR","min":[0.0],"max":[0.95]},{"bufferView":204,"componentType":5126,"count":5,"type":"VEC4"},{"bufferView":205,"componentType":5126,"count":5,"type":"SCALAR","min":[0.0],"max":[0.95]},{"bufferView":206,"componentType":5126,"count":5,"type":"VEC4"},{"bufferView":207,"componentType":5126,"count":5,"type":"SCALAR","min":[0.0],"max":[0.95]},{"bufferView":208,"componentType":5126,"count":5,"type":"VEC4"},{"bufferView":209,"componentType":5126,"count":5,"type":"SCALAR","min":[0.0],"max":[0.95]},{"bufferView":210,"componentType":5126,"count":5,"type":"VEC4"},{"bufferView":211,"componentType":5126,"count":5,"type":"SCALAR","min":[0.0],"max":[0.95]},{"bufferView":212,"componentType":5126,"count":5,"type":"VEC4"},{"bufferView":213,"componentType":5126,"count":5,"type":"SCALAR","min":[0.0],"max":[0.95]},{"bufferView":214,"componentType":5126,"count":5,"type":"VEC4"},{"bufferView":215,"componentType":5126,"count":5,"type":"SCALAR","min":[0.0],"max":[0.95]},{"bufferView":216,"componentType":5126,"count":5,"type":"VEC4"},{"bufferView":217,"componentType":5126,"count":5,"type":"SCALAR","min":[0.0],"max":[0.95]},{"bufferView":218,"componentType":5126,"count":5,"type":"VEC4"},{"bufferView":219,"componentType":5126,"count":5,"type":"SCALAR","min":[0.0],"max":[0.95]},{"bufferView":220,"componentType":5126,"count":5,"type":"VEC4"},{"bufferView":221,"componentType":5126,"count":5,"type":"SCALAR","min":[0.0],"max":[0.95]},{"bufferView":222,"componentType":5126,"count":5,"type":"VEC4"},{"bufferView":223,"componentType":5126,"count":5,"type":"SCALAR","min":[0.0],"max":[0.95]},{"bufferView":224,"componentType":5126,"count":5,"type":"VEC4"},{"bufferView":225,"componentType":5126,"count":5,"type":"SCALAR","min":[0.0],"max":[0.95]},{"bufferView":226,"componentType":5126,"count":5,"type":"VEC4"},{"bufferView":227,"componentType":5126,"count":5,"type":"SCALAR","min":[0.0],"max":[0.95]},{"bufferView":228,"componentType":5126,"count":5,"type":"VEC4"},{"bufferView":229,"componentType":5126,"count":5,"type":"SCALAR","min":[0.0],"max":[0.95]},{"bufferView":230,"componentType":5126,"count":5,"type":"VEC4"},{"bufferView":231,"componentType":5126,"count":5,"type":"SCALAR","min":[0.0],"max":[0.95]},{"bufferView":232,"componentType":5126,"count":5,"type":"VEC4"},{"bufferView":233,"componentType":5126,"count":5,"type":"SCALAR","min":[0.0],"max":[0.95]},{"bufferView":234,"componentType":5126,"count":5,"type":"VEC4"},{"bufferView":235,"componentType":5126,"count":5,"type":"SCALAR","min":[0.0],"max":[0.95]},{"bufferView":236,"componentType":5126,"count":5,"type":"VEC4"},{"bufferView":237,"componentType":5126,"count":5,"type":"SCALAR","min":[0.0],"max":[0.95]},{"bufferView":238,"componentType":5126,"count":5,"type":"VEC4"},{"bufferView":239,"componentType":5126,"count":5,"type":"SCALAR","min":[0.0],"max":[0.95]},{"bufferView":240,"componentType":5126,"count":5,"type":"VEC4"},{"bufferView":241,"componentType":5126,"count":5,"type":"SCALAR","min":[0.0],"max":[0.95]},{"bufferView":242,"componentType":5126,"count":5,"type":"VEC4"},{"bufferView":243,"componentType":5126,"count":5,"type":"SCALAR","min":[0.0],"max":[0.95]},{"bufferView":244,"componentType":5126,"count":5,"type":"VEC4"},{"bufferView":245,"componentType":5126,"count":5,"type":"SCALAR","min":[0.0],"max":[0.95]},{"bufferView":246,"componentType":5126,"count":5,"type":"VEC4"},{"bufferView":247,"componentType":5126,"count":5,"type":"SCALAR","min":[0.0],"max":[1.25]},{"bufferView":248,"componentType":5126,"count":5,"type":"VEC4"},{"bufferView":249,"componentType":5126,"count":5,"type":"SCALAR","min":[0.0],"max":[1.25]},{"bufferView":250,"componentType":5126,"count":5,"type":"VEC4"},{"bufferView":251,"componentType":5126,"count":5,"type":"SCALAR","min":[0.0],"max":[1.25]},{"bufferView":252,"componentType":5126,"count":5,"type":"VEC4"},{"bufferView":253,"componentType":5126,"count":5,"type":"SCALAR","min":[0.0],"max":[1.25]},{"bufferView":254,"componentType":5126,"count":5,"type":"VEC4"},{"bufferView":255,"componentType":5126,"count":5,"type":"SCALAR","min":[0.0],"max":[1.25]},{"bufferView":256,"componentType":5126,"count":5,"type":"VEC4"},{"bufferView":257,"componentType":5126,"count":5,"type":"SCALAR","min":[0.0],"max":[1.25]},{"bufferView":258,"componentType":5126,"count":5,"type":"VEC4"},{"bufferView":259,"componentType":5126,"count":5,"type":"SCALAR","min":[0.0],"max":[1.25]},{"bufferView":260,"componentType":5126,"count":5,"type":"VEC4"},{"bufferView":261,"componentType":5126,"count":5,"type":"SCALAR","min":[0.0],"max":[1.25]},{"bufferView":262,"componentType":5126,"count":5,"type":"VEC4"},{"bufferView":263,"componentType":5126,"count":5,"type":"SCALAR","min":[0.0],"max":[1.25]},{"bufferView":264,"componentType":5126,"count":5,"type":"VEC4"},{"bufferView":265,"componentType":5126,"count":5,"type":"SCALAR","min":[0.0],"max":[1.25]},{"bufferView":266,"componentType":5126,"count":5,"type":"VEC4"},{"bufferView":267,"componentType":5126,"count":5,"type":"SCALAR","min":[0.0],"max":[1.25]},{"bufferView":268,"componentType":5126,"count":5,"type":"VEC4"},{"bufferView":269,"componentType":5126,"count":5,"type":"SCALAR","min":[0.0],"max":[1.25]},{"bufferView":270,"componentType":5126,"count":5,"type":"VEC4"},{"bufferView":271,"componentType":5126,"count":5,"type":"SCALAR","min":[0.0],"max":[1.25]},{"bufferView":272,"componentType":5126,"count":5,"type":"VEC4"},{"bufferView":273,"componentType":5126,"count":5,"type":"SCALAR","min":[0.0],"max":[1.25]},{"bufferView":274,"componentType":5126,"count":5,"type":"VEC4"},{"bufferView":275,"componentType":5126,"count":5,"type":"SCALAR","min":[0.0],"max":[1.25]},{"bufferView":276,"componentType":5126,"count":5,"type":"VEC4"},{"bufferView":277,"componentType":5126,"count":5,"type":"SCALAR","min":[0.0],"max":[1.25]},{"bufferView":278,"componentType":5126,"count":5,"type":"VEC4"},{"bufferView":279,"componentType":5126,"count":5,"type":"SCALAR","min":[0.0],"max":[1.25]},{"bufferView":280,"componentType":5126,"count":5,"type":"VEC4"},{"bufferView":281,"componentType":5126,"count":5,"type":"SCALAR","min":[0.0],"max":[1.25]},{"bufferView":282,"componentType":5126,"count":5,"type":"VEC4"},{"bufferView":283,"componentType":5126,"count":5,"type":"SCALAR","min":[0.0],"max":[1.25]},{"bufferView":284,"componentType":5126,"count":5,"type":"VEC4"},{"bufferView":285,"componentType":5126,"count":5,"type":"SCALAR","min":[0.0],"max":[1.25]},{"bufferView":286,"componentType":5126,"count":5,"type":"VEC4"},{"bufferView":287,"componentType":5126,"count":5,"type":"SCALAR","min":[0.0],"max":[1.25]},{"bufferView":288,"componentType":5126,"count":5,"type":"VEC4"},{"bufferView":289,"componentType":5126,"count":5,"type":"SCALAR","min":[0.0],"max":[1.25]},{"bufferView":290,"componentType":5126,"count":5,"type":"VEC4"},{"bufferView":291,"componentType":5126,"count":5,"type":"SCALAR","min":[0.0],"max":[1.25]},{"bufferView":292,"componentType":5126,"count":5,"type":"VEC4"},{"bufferView":293,"componentType":5126,"count":5,"type":"SCALAR","min":[0.0],"max":[1.25]},{"bufferView":294,"componentType":5126,"count":5,"type":"VEC4"},{"bufferView":295,"componentType":5126,"count":5,"type":"SCALAR","min":[0.0],"max":[0.25]},{"bufferView":296,"componentType":5126,"count":5,"type":"VEC4"},{"bufferView":297,"componentType":5126,"count":5,"type":"SCALAR","min":[0.0],"max":[0.25]},{"bufferView":298,"componentType":5126,"count":5,"type":"VEC4"},{"bufferView":299,"componentType":5126,"count":5,"type":"SCALAR","min":[0.0],"max":[0.25]},{"bufferView":300,"componentType":5126,"count":5,"type":"VEC4"},{"bufferView":301,"componentType":5126,"count":5,"type":"SCALAR","min":[0.0],"max":[0.25]},{"bufferView":302,"componentType":5126,"count":5,"type":"VEC4"},{"bufferView":303,"componentType":5126,"count":5,"type":"SCALAR","min":[0.0],"max":[0.25]},{"bufferView":304,"componentType":5126,"count":5,"type":"VEC4"},{"bufferView":305,"componentType":5126,"count":5,"type":"SCALAR","min":[0.0],"max":[0.25]},{"bufferView":306,"componentType":5126,"count":5,"type":"VEC4"},{"bufferView":307,"componentType":5126,"count":5,"type":"SCALAR","min":[0.0],"max":[0.25]},{"bufferView":308,"componentType":5126,"count":5,"type":"VEC4"},{"bufferView":309,"componentType":5126,"count":5,"type":"SCALAR","min":[0.0],"max":[0.25]},{"bufferView":310,"componentType":5126,"count":5,"type":"VEC4"},{"bufferView":311,"componentType":5126,"count":5,"type":"SCALAR","min":[0.0],"max":[0.25]},{"bufferView":312,"componentType":5126,"count":5,"type":"VEC4"},{"bufferView":313,"componentType":5126,"count":5,"type":"SCALAR","min":[0.0],"max":[0.25]},{"bufferView":314,"componentType":5126,"count":5,"type":"VEC4"},{"bufferView":315,"componentType":5126,"count":5,"type":"SCALAR","min":[0.0],"max":[0.25]},{"bufferView":316,"componentType":5126,"count":5,"type":"VEC4"},{"bufferView":317,"componentType":5126,"count":5,"type":"SCALAR","min":[0.0],"max":[0.25]},{"bufferView":318,"componentType":5126,"count":5,"type":"VEC4"},{"bufferView":319,"componentType":5126,"count":5,"type":"SCALAR","min":[0.0],"max":[0.25]},{"bufferView":320,"componentType":5126,"count":5,"type":"VEC4"},{"bufferView":321,"componentType":5126,"count":5,"type":"SCALAR","min":[0.0],"max":[0.25]},{"bufferView":322,"componentType":5126,"count":5,"type":"VEC4"},{"bufferView":323,"componentType":5126,"count":5,"type":"SCALAR","min":[0.0],"max":[0.25]},{"bufferView":324,"componentType":5126,"count":5,"type":"VEC4"},{"bufferView":325,"componentType":5126,"count":5,"type":"SCALAR","min":[0.0],"max":[0.25]},{"bufferView":326,"componentType":5126,"count":5,"type":"VEC4"},{"bufferView":327,"componentType":5126,"count":5,"type":"SCALAR","min":[0.0],"max":[0.25]},{"bufferView":328,"componentType":5126,"count":5,"type":"VEC4"},{"bufferView":329,"componentType":5126,"count":5,"type":"SCALAR","min":[0.0],"max":[0.25]},{"bufferView":330,"componentType":5126,"count":5,"type":"VEC4"},{"bufferView":331,"componentType":5126,"count":5,"type":"SCALAR","min":[0.0],"max":[0.25]},{"bufferView":332,"componentType":5126,"count":5,"type":"VEC4"},{"bufferView":333,"componentType":5126,"count":5,"type":"SCALAR","min":[0.0],"max":[0.25]},{"bufferView":334,"componentType":5126,"count":5,"type":"VEC4"},{"bufferView":335,"componentType":5126,"count":5,"type":"SCALAR","min":[0.0],"max":[0.25]},{"bufferView":336,"componentType":5126,"count":5,"type":"VEC4"},{"bufferView":337,"componentType":5126,"count":5,"type":"SCALAR","min":[0.0],"max":[0.25]},{"bufferView":338,"componentType":5126,"count":5,"type":"VEC4"},{"bufferView":339,"componentType":5126,"count":5,"type":"SCALAR","min":[0.0],"max":[0.25]},{"bufferView":340,"componentType":5126,"count":5,"type":"VEC4"},{"bufferView":341,"componentType":5126,"count":5,"type":"SCALAR","min":[0.0],"max":[0.25]},{"bufferView":342,"componentType":5126,"count":5,"type":"VEC4"},{"bufferView":343,"componentType":5126,"count":5,"type":"SCALAR","min":[0.0],"max":[0.35]},{"bufferView":344,"componentType":5126,"count":5,"type":"VEC4"},{"bufferView":345,"componentType":5126,"count":5,"type":"SCALAR","min":[0.0],"max":[0.35]},{"bufferView":346,"componentType":5126,"count":5,"type":"VEC4"},{"bufferView":347,"componentType":5126,"count":5,"type":"SCALAR","min":[0.0],"max":[0.35]},{"bufferView":348,"componentType":5126,"count":5,"type":"VEC4"},{"bufferView":349,"componentType":5126,"count":5,"type":"SCALAR","min":[0.0],"max":[0.35]},{"bufferView":350,"componentType":5126,"count":5,"type":"VEC4"},{"bufferView":351,"componentType":5126,"count":5,"type":"SCALAR","min":[0.0],"max":[0.35]},{"bufferView":352,"componentType":5126,"count":5,"type":"VEC4"},{"bufferView":353,"componentType":5126,"count":5,"type":"SCALAR","min":[0.0],"max":[0.35]},{"bufferView":354,"componentType":5126,"count":5,"type":"VEC4"},{"bufferView":355,"componentType":5126,"count":5,"type":"SCALAR","min":[0.0],"max":[0.35]},{"bufferView":356,"componentType":5126,"count":5,"type":"VEC4"},{"bufferView":357,"componentType":5126,"count":5,"type":"SCALAR","min":[0.0],"max":[0.35]},{"bufferView":358,"componentType":5126,"count":5,"type":"VEC4"},{"bufferView":359,"componentType":5126,"count":5,"type":"SCALAR","min":[0.0],"max":[0.35]},{"bufferView":360,"componentType":5126,"count":5,"type":"VEC4"},{"bufferView":361,"componentType":5126,"count":5,"type":"SCALAR","min":[0.0],"max":[0.35]},{"bufferView":362,"componentType":5126,"count":5,"type":"VEC4"},{"bufferView":363,"componentType":5126,"count":5,"type":"SCALAR","min":[0.0],"max":[0.35]},{"bufferView":364,"componentType":5126,"count":5,"type":"VEC4"},{"bufferView":365,"componentType":5126,"count":5,"type":"SCALAR","min":[0.0],"max":[0.35]},{"bufferView":366,"componentType":5126,"count":5,"type":"VEC4"},{"bufferView":367,"componentType":5126,"count":5,"type":"SCALAR","min":[0.0],"max":[0.35]},{"bufferView":368,"componentType":5126,"count":5,"type":"VEC4"},{"bufferView":369,"componentType":5126,"count":5,"type":"SCALAR","min":[0.0],"max":[0.35]},{"bufferView":370,"componentType":5126,"count":5,"type":"VEC4"},{"bufferView":371,"componentType":5126,"count":5,"type":"SCALAR","min":[0.0],"max":[0.35]},{"bufferView":372,"componentType":5126,"count":5,"type":"VEC4"},{"bufferView":373,"componentType":5126,"count":5,"type":"SCALAR","min":[0.0],"max":[0.35]},{"bufferView":374,"componentType":5126,"count":5,"type":"VEC4"},{"bufferView":375,"componentType":5126,"count":5,"type":"SCALAR","min":[0.0],"max":[0.35]},{"bufferView":376,"componentType":5126,"count":5,"type":"VEC4"},{"bufferView":377,"componentType":5126,"count":5,"type":"SCALAR","min":[0.0],"max":[0.35]},{"bufferView":378,"componentType":5126,"count":5,"type":"VEC4"},{"bufferView":379,"componentType":5126,"count":5,"type":"SCALAR","min":[0.0],"max":[0.35]},{"bufferView":380,"componentType":5126,"count":5,"type":"VEC4"},{"bufferView":381,"componentType":5126,"count":5,"type":"SCALAR","min":[0.0],"max":[0.35]},{"bufferView":382,"componentType":5126,"count":5,"type":"VEC4"},{"bufferView":383,"componentType":5126,"count":5,"type":"SCALAR","min":[0.0],"max":[0.35]},{"bufferView":384,"componentType":5126,"count":5,"type":"VEC4"},{"bufferView":385,"componentType":5126,"count":5,"type":"SCALAR","min":[0.0],"max":[0.35]},{"bufferView":386,"componentType":5126,"count":5,"type":"VEC4"},{"bufferView":387,"componentType":5126,"count":5,"type":"SCALAR","min":[0.0],"max":[0.35]},{"bufferView":388,"componentType":5126,"count":5,"type":"VEC4"},{"bufferView":389,"componentType":5126,"count":5,"type":"SCALAR","min":[0.0],"max":[0.35]},{"bufferView":390,"componentType":5126,"count":5,"type":"VEC4"},{"bufferView":391,"componentType":5126,"count":5,"type":"SCALAR","min":[0.0],"max":[0.4]},{"bufferView":392,"componentType":5126,"count":5,"type":"VEC4"},{"bufferView":393,"componentType":5126,"count":5,"type":"SCALAR","min":[0.0],"max":[0.4]},{"bufferView":394,"componentType":5126,"count":5,"type":"VEC4"},{"bufferView":395,"componentType":5126,"count":5,"type":"SCALAR","min":[0.0],"max":[0.4]},{"bufferView":396,"componentType":5126,"count":5,"type":"VEC4"},{"bufferView":397,"componentType":5126,"count":5,"type":"SCALAR","min":[0.0],"max":[0.4]},{"bufferView":398,"componentType":5126,"count":5,"type":"VEC4"},{"bufferView":399,"componentType":5126,"count":5,"type":"SCALAR","min":[0.0],"max":[0.4]},{"bufferView":400,"componentType":5126,"count":5,"type":"VEC4"},{"bufferView":401,"componentType":5126,"count":5,"type":"SCALAR","min":[0.0],"max":[0.4]},{"bufferView":402,"componentType":5126,"count":5,"type":"VEC4"},{"bufferView":403,"componentType":5126,"count":5,"type":"SCALAR","min":[0.0],"max":[0.4]},{"bufferView":404,"componentType":5126,"count":5,"type":"VEC4"},{"bufferView":405,"componentType":5126,"count":5,"type":"SCALAR","min":[0.0],"max":[0.4]},{"bufferView":406,"componentType":5126,"count":5,"type":"VEC4"},{"bufferView":407,"componentType":5126,"count":5,"type":"SCALAR","min":[0.0],"max":[0.4]},{"bufferView":408,"componentType":5126,"count":5,"type":"VEC4"},{"bufferView":409,"componentType":5126,"count":5,"type":"SCALAR","min":[0.0],"max":[0.4]},{"bufferView":410,"componentType":5126,"count":5,"type":"VEC4"},{"bufferView":411,"componentType":5126,"count":5,"type":"SCALAR","min":[0.0],"max":[0.4]},{"bufferView":412,"componentType":5126,"count":5,"type":"VEC4"},{"bufferView":413,"componentType":5126,"count":5,"type":"SCALAR","min":[0.0],"max":[0.4]},{"bufferView":414,"componentType":5126,"count":5,"type":"VEC4"},{"bufferView":415,"componentType":5126,"count":5,"type":"SCALAR","min":[0.0],"max":[0.4]},{"bufferView":416,"componentType":5126,"count":5,"type":"VEC4"},{"bufferView":417,"componentType":5126,"count":5,"type":"SCALAR","min":[0.0],"max":[0.4]},{"bufferView":418,"componentType":5126,"count":5,"type":"VEC4"},{"bufferView":419,"componentType":5126,"count":5,"type":"SCALAR","min":[0.0],"max":[0.4]},{"bufferView":420,"componentType":5126,"count":5,"type":"VEC4"},{"bufferView":421,"componentType":5126,"count":5,"type":"SCALAR","min":[0.0],"max":[0.4]},{"bufferView":422,"componentType":5126,"count":5,"type":"VEC4"},{"bufferView":423,"componentType":5126,"count":5,"type":"SCALAR","min":[0.0],"max":[0.4]},{"bufferView":424,"componentType":5126,"count":5,"type":"VEC4"},{"bufferView":425,"componentType":5126,"count":5,"type":"SCALAR","min":[0.0],"max":[0.4]},{"bufferView":426,"componentType":5126,"count":5,"type":"VEC4"},{"bufferView":427,"componentType":5126,"count":5,"type":"SCALAR","min":[0.0],"max":[0.4]},{"bufferView":428,"componentType":5126,"count":5,"type":"VEC4"},{"bufferView":429,"componentType":5126,"count":5,"type":"SCALAR","min":[0.0],"max":[0.4]},{"bufferView":430,"componentType":5126,"count":5,"type":"VEC4"},{"bufferView":431,"componentType":5126,"count":5,"type":"SCALAR","min":[0.0],"max":[0.4]},{"bufferView":432,"componentType":5126,"count":5,"type":"VEC4"},{"bufferView":433,"componentType":5126,"count":5,"type":"SCALAR","min":[0.0],"max":[0.4]},{"bufferView":434,"componentType":5126,"count":5,"type":"VEC4"},{"bufferView":435,"componentType":5126,"count":5,"type":"SCALAR","min":[0.0],"max":[0.4]},{"bufferView":436,"componentType":5126,"count":5,"type":"VEC4"},{"bufferView":437,"componentType":5126,"count":5,"type":"SCALAR","min":[0.0],"max":[0.4]},{"bufferView":438,"componentType":5126,"count":5,"type":"VEC4"},{"bufferView":439,"componentType":5126,"count":5,"type":"SCALAR","min":[0.0],"max":[0.8]},{"bufferView":440,"componentType":5126,"count":5,"type":"VEC4"},{"bufferView":441,"componentType":5126,"count":5,"type":"SCALAR","min":[0.0],"max":[0.8]},{"bufferView":442,"componentType":5126,"count":5,"type":"VEC4"},{"bufferView":443,"componentType":5126,"count":5,"type":"SCALAR","min":[0.0],"max":[0.8]},{"bufferView":444,"componentType":5126,"count":5,"type":"VEC4"},{"bufferView":445,"componentType":5126,"count":5,"type":"SCALAR","min":[0.0],"max":[0.8]},{"bufferView":446,"componentType":5126,"count":5,"type":"VEC4"},{"bufferView":447,"componentType":5126,"count":5,"type":"SCALAR","min":[0.0],"max":[0.8]},{"bufferView":448,"componentType":5126,"count":5,"type":"VEC4"},{"bufferView":449,"componentType":5126,"count":5,"type":"SCALAR","min":[0.0],"max":[0.8]},{"bufferView":450,"componentType":5126,"count":5,"type":"VEC4"},{"bufferView":451,"componentType":5126,"count":5,"type":"SCALAR","min":[0.0],"max":[0.8]},{"bufferView":452,"componentType":5126,"count":5,"type":"VEC4"},{"bufferView":453,"componentType":5126,"count":5,"type":"SCALAR","min":[0.0],"max":[0.8]},{"bufferView":454,"componentType":5126,"count":5,"type":"VEC4"},{"bufferView":455,"componentType":5126,"count":5,"type":"SCALAR","min":[0.0],"max":[0.8]},{"bufferView":456,"componentType":5126,"count":5,"type":"VEC4"},{"bufferView":457,"componentType":5126,"count":5,"type":"SCALAR","min":[0.0],"max":[0.8]},{"bufferView":458,"componentType":5126,"count":5,"type":"VEC4"},{"bufferView":459,"componentType":5126,"count":5,"type":"SCALAR","min":[0.0],"max":[0.8]},{"bufferView":460,"componentType":5126,"count":5,"type":"VEC4"},{"bufferView":461,"componentType":5126,"count":5,"type":"SCALAR","min":[0.0],"max":[0.8]},{"bufferView":462,"componentType":5126,"count":5,"type":"VEC4"},{"bufferView":463,"componentType":5126,"count":5,"type":"SCALAR","min":[0.0],"max":[0.8]},{"bufferView":464,"componentType":5126,"count":5,"type":"VEC4"},{"bufferView":465,"componentType":5126,"count":5,"type":"SCALAR","min":[0.0],"max":[0.8]},{"bufferView":466,"componentType":5126,"count":5,"type":"VEC4"},{"bufferView":467,"componentType":5126,"count":5,"type":"SCALAR","min":[0.0],"max":[0.8]},{"bufferView":468,"componentType":5126,"count":5,"type":"VEC4"},{"bufferView":469,"componentType":5126,"count":5,"type":"SCALAR","min":[0.0],"max":[0.8]},{"bufferView":470,"componentType":5126,"count":5,"type":"VEC4"},{"bufferView":471,"componentType":5126,"count":5,"type":"SCALAR","min":[0.0],"max":[0.8]},{"bufferView":472,"componentType":5126,"count":5,"type":"VEC4"},{"bufferView":473,"componentType":5126,"count":5,"type":"SCALAR","min":[0.0],"max":[0.8]},{"bufferView":474,"componentType":5126,"count":5,"type":"VEC4"},{"bufferView":475,"componentType":5126,"count":5,"type":"SCALAR","min":[0.0],"max":[0.8]},{"bufferView":476,"componentType":5126,"count":5,"type":"VEC4"},{"bufferView":477,"componentType":5126,"count":5,"type":"SCALAR","min":[0.0],"max":[0.8]},{"bufferView":478,"componentType":5126,"count":5,"type":"VEC4"},{"bufferView":479,"componentType":5126,"count":5,"type":"SCALAR","min":[0.0],"max":[0.8]},{"bufferView":480,"componentType":5126,"count":5,"type":"VEC4"},{"bufferView":481,"componentType":5126,"count":5,"type":"SCALAR","min":[0.0],"max":[0.8]},{"bufferView":482,"componentType":5126,"count":5,"type":"VEC4"},{"bufferView":483,"componentType":5126,"count":5,"type":"SCALAR","min":[0.0],"max":[0.8]},{"bufferView":484,"componentType":5126,"count":5,"type":"VEC4"},{"bufferView":485,"componentType":5126,"count":5,"type":"SCALAR","min":[0.0],"max":[0.8]},{"bufferView":486,"componentType":5126,"count":5,"type":"VEC4"},{"bufferView":487,"componentType":5126,"count":5,"type":"SCALAR","min":[0.0],"max":[1.2]},{"bufferView":488,"componentType":5126,"count":5,"type":"VEC4"},{"bufferView":489,"componentType":5126,"count":5,"type":"SCALAR","min":[0.0],"max":[1.2]},{"bufferView":490,"componentType":5126,"count":5,"type":"VEC4"},{"bufferView":491,"componentType":5126,"count":5,"type":"SCALAR","min":[0.0],"max":[1.2]},{"bufferView":492,"componentType":5126,"count":5,"type":"VEC4"},{"bufferView":493,"componentType":5126,"count":5,"type":"SCALAR","min":[0.0],"max":[1.2]},{"bufferView":494,"componentType":5126,"count":5,"type":"VEC4"},{"bufferView":495,"componentType":5126,"count":5,"type":"SCALAR","min":[0.0],"max":[1.2]},{"bufferView":496,"componentType":5126,"count":5,"type":"VEC4"},{"bufferView":497,"componentType":5126,"count":5,"type":"SCALAR","min":[0.0],"max":[1.2]},{"bufferView":498,"componentType":5126,"count":5,"type":"VEC4"},{"bufferView":499,"componentType":5126,"count":5,"type":"SCALAR","min":[0.0],"max":[1.2]},{"bufferView":500,"componentType":5126,"count":5,"type":"VEC4"},{"bufferView":501,"componentType":5126,"count":5,"type":"SCALAR","min":[0.0],"max":[1.2]},{"bufferView":502,"componentType":5126,"count":5,"type":"VEC4"},{"bufferView":503,"componentType":5126,"count":5,"type":"SCALAR","min":[0.0],"max":[1.2]},{"bufferView":504,"componentType":5126,"count":5,"type":"VEC4"},{"bufferView":505,"componentType":5126,"count":5,"type":"SCALAR","min":[0.0],"max":[1.2]},{"bufferView":506,"componentType":5126,"count":5,"type":"VEC4"},{"bufferView":507,"componentType":5126,"count":5,"type":"SCALAR","min":[0.0],"max":[1.2]},{"bufferView":508,"componentType":5126,"count":5,"type":"VEC4"},{"bufferView":509,"componentType":5126,"count":5,"type":"SCALAR","min":[0.0],"max":[1.2]},{"bufferView":510,"componentType":5126,"count":5,"type":"VEC4"},{"bufferView":511,"componentType":5126,"count":5,"type":"SCALAR","min":[0.0],"max":[1.2]},{"bufferView":512,"componentType":5126,"count":5,"type":"VEC4"},{"bufferView":513,"componentType":5126,"count":5,"type":"SCALAR","min":[0.0],"max":[1.2]},{"bufferView":514,"componentType":5126,"count":5,"type":"VEC4"},{"bufferView":515,"componentType":5126,"count":5,"type":"SCALAR","min":[0.0],"max":[1.2]},{"bufferView":516,"componentType":5126,"count":5,"type":"VEC4"},{"bufferView":517,"componentType":5126,"count":5,"type":"SCALAR","min":[0.0],"max":[1.2]},{"bufferView":518,"componentType":5126,"count":5,"type":"VEC4"},{"bufferView":519,"componentType":5126,"count":5,"type":"SCALAR","min":[0.0],"max":[1.2]},{"bufferView":520,"componentType":5126,"count":5,"type":"VEC4"},{"bufferView":521,"componentType":5126,"count":5,"type":"SCALAR","min":[0.0],"max":[1.2]},{"bufferView":522,"componentType":5126,"count":5,"type":"VEC4"},{"bufferView":523,"componentType":5126,"count":5,"type":"SCALAR","min":[0.0],"max":[1.2]},{"bufferView":524,"componentType":5126,"count":5,"type":"VEC4"},{"bufferView":525,"componentType":5126,"count":5,"type":"SCALAR","min":[0.0],"max":[1.2]},{"bufferView":526,"componentType":5126,"count":5,"type":"VEC4"},{"bufferView":527,"componentType":5126,"count":5,"type":"SCALAR","min":[0.0],"max":[1.2]},{"bufferView":528,"componentType":5126,"count":5,"type":"VEC4"},{"bufferView":529,"componentType":5126,"count":5,"type":"SCALAR","min":[0.0],"max":[1.2]},{"bufferView":530,"componentType":5126,"count":5,"type":"VEC4"},{"bufferView":531,"componentType":5126,"count":5,"type":"SCALAR","min":[0.0],"max":[1.2]},{"bufferView":532,"componentType":5126,"count":5,"type":"VEC4"},{"bufferView":533,"componentType":5126,"count":5,"type":"SCALAR","min":[0.0],"max":[1.2]},{"bufferView":534,"componentType":5126,"count":5,"type":"VEC4"}],"animations":[{"name":"idle","samplers":[{"input":7,"output":8,"interpolation":"LINEAR"},{"input":9,"output":10,"interpolation":"LINEAR"},{"input":11,"output":12,"interpolation":"LINEAR"},{"input":13,"output":14,"interpolation":"LINEAR"},{"input":15,"output":16,"interpolation":"LINEAR"},{"input":17,"output":18,"interpolation":"LINEAR"},{"input":19,"output":20,"interpolation":"LINEAR"},{"input":21,"output":22,"interpolation":"LINEAR"},{"input":23,"output":24,"interpolation":"LINEAR"},{"input":25,"output":26,"interpolation":"LINEAR"},{"input":27,"output":28,"interpolation":"LINEAR"},{"input":29,"output":30,"interpolation":"LINEAR"},{"input":31,"output":32,"interpolation":"LINEAR"},{"input":33,"output":34,"interpolation":"LINEAR"},{"input":35,"output":36,"interpolation":"LINEAR"},{"input":37,"output":38,"interpolation":"LINEAR"},{"input":39,"output":40,"interpolation":"LINEAR"},{"input":41,"output":42,"interpolation":"LINEAR"},{"input":43,"output":44,"interpolation":"LINEAR"},{"input":45,"output":46,"interpolation":"LINEAR"},{"input":47,"output":48,"interpolation":"LINEAR"},{"input":49,"output":50,"interpolation":"LINEAR"},{"input":51,"output":52,"interpolation":"LINEAR"},{"input":53,"output":54,"interpolation":"LINEAR"}],"channels":[{"sampler":0,"target":{"node":0,"path":"rotation"}},{"sampler":1,"target":{"node":1,"path":"rotation"}},{"sampler":2,"target":{"node":2,"path":"rotation"}},{"sampler":3,"target":{"node":3,"path":"rotation"}},{"sampler":4,"target":{"node":4,"path":"rotation"}},{"sampler":5,"target":{"node":5,"path":"rotation"}},{"sampler":6,"target":{"node":6,"path":"rotation"}},{"sampler":7,"target":{"node":7,"path":"rotation"}},{"sampler":8,"target":{"node":8,"path":"rotation"}},{"sampler":9,"target":{"node":9,"path":"rotation"}},{"sampler":10,"target":{"node":10,"path":"rotation"}},{"sampler":11,"target":{"node":11,"path":"rotation"}},{"sampler":12,"target":{"node":12,"path":"rotation"}},{"sampler":13,"target":{"node":13,"path":"rotation"}},{"sampler":14,"target":{"node":14,"path":"rotation"}},{"sampler":15,"target":{"node":15,"path":"rotation"}},{"sampler":16,"target":{"node":16,"path":"rotation"}},{"sampler":17,"target":{"node":17,"path":"rotation"}},{"sampler":18,"target":{"node":18,"path":"rotation"}},{"sampler":19,"target":{"node":19,"path":"rotation"}},{"sampler":20,"target":{"node":20,"path":"rotation"}},{"sampler":21,"target":{"node":21,"path":"rotation"}},{"sampler":22,"target":{"node":22,"path":"rotation"}},{"sampler":23,"target":{"node":23,"path":"rotation"}}]},{"name":"walk","samplers":[{"input":55,"output":56,"interpolation":"LINEAR"},{"input":57,"output":58,"interpolation":"LINEAR"},{"input":59,"output":60,"interpolation":"LINEAR"},{"input":61,"output":62,"interpolation":"LINEAR"},{"input":63,"output":64,"interpolation":"LINEAR"},{"input":65,"output":66,"interpolation":"LINEAR"},{"input":67,"output":68,"interpolation":"LINEAR"},{"input":69,"output":70,"interpolation":"LINEAR"},{"input":71,"output":72,"interpolation":"LINEAR"},{"input":73,"output":74,"interpolation":"LINEAR"},{"input":75,"output":76,"interpolation":"LINEAR"},{"input":77,"output":78,"interpolation":"LINEAR"},{"input":79,"output":80,"interpolation":"LINEAR"},{"input":81,"output":82,"interpolation":"LINEAR"},{"input":83,"output":84,"interpolation":"LINEAR"},{"input":85,"output":86,"interpolation":"LINEAR"},{"input":87,"output":88,"interpolation":"LINEAR"},{"input":89,"output":90,"interpolation":"LINEAR"},{"input":91,"output":92,"interpolation":"LINEAR"},{"input":93,"output":94,"interpolation":"LINEAR"},{"input":95,"output":96,"interpolation":"LINEAR"},{"input":97,"output":98,"interpolation":"LINEAR"},{"input":99,"output":100,"interpolation":"LINEAR"},{"input":101,"output":102,"interpolation":"LINEAR"}],"channels":[{"sampler":0,"target":{"node":0,"path":"rotation"}},{"sampler":1,"target":{"node":1,"path":"rotation"}},{"sampler":2,"target":{"node":2,"path":"rotation"}},{"sampler":3,"target":{"node":3,"path":"rotation"}},{"sampler":4,"target":{"node":4,"path":"rotation"}},{"sampler":5,"target":{"node":5,"path":"rotation"}},{"sampler":6,"target":{"node":6,"path":"rotation"}},{"sampler":7,"target":{"node":7,"path":"rotation"}},{"sampler":8,"target":{"node":8,"path":"rotation"}},{"sampler":9,"target":{"node":9,"path":"rotation"}},{"sampler":10,"target":{"node":10,"path":"rotation"}},{"sampler":11,"target":{"node":11,"path":"rotation"}},{"sampler":12,"target":{"node":12,"path":"rotation"}},{"sampler":13,"target":{"node":13,"path":"rotation"}},{"sampler":14,"target":{"node":14,"path":"rotation"}},{"sampler":15,"target":{"node":15,"path":"rotation"}},{"sampler":16,"target":{"node":16,"path":"rotation"}},{"sampler":17,"target":{"node":17,"path":"rotation"}},{"sampler":18,"target":{"node":18,"path":"rotation"}},{"sampler":19,"target":{"node":19,"path":"rotation"}},{"sampler":20,"target":{"node":20,"path":"rotation"}},{"sampler":21,"target":{"node":21,"path":"rotation"}},{"sampler":22,"target":{"node":22,"path":"rotation"}},{"sampler":23,"target":{"node":23,"path":"rotation"}}]},{"name":"run","samplers":[{"input":103,"output":104,"interpolation":"LINEAR"},{"input":105,"output":106,"interpolation":"LINEAR"},{"input":107,"output":108,"interpolation":"LINEAR"},{"input":109,"output":110,"interpolation":"LINEAR"},{"input":111,"output":112,"interpolation":"LINEAR"},{"input":113,"output":114,"interpolation":"LINEAR"},{"input":115,"output":116,"interpolation":"LINEAR"},{"input":117,"output":118,"interpolation":"LINEAR"},{"input":119,"output":120,"interpolation":"LINEAR"},{"input":121,"output":122,"interpolation":"LINEAR"},{"input":123,"output":124,"interpolation":"LINEAR"},{"input":125,"output":126,"interpolation":"LINEAR"},{"input":127,"output":128,"interpolation":"LINEAR"},{"input":129,"output":130,"interpolation":"LINEAR"},{"input":131,"output":132,"interpolation":"LINEAR"},{"input":133,"output":134,"interpolation":"LINEAR"},{"input":135,"output":136,"interpolation":"LINEAR"},{"input":137,"output":138,"interpolation":"LINEAR"},{"input":139,"output":140,"interpolation":"LINEAR"},{"input":141,"output":142,"interpolation":"LINEAR"},{"input":143,"output":144,"interpolation":"LINEAR"},{"input":145,"output":146,"interpolation":"LINEAR"},{"input":147,"output":148,"interpolation":"LINEAR"},{"input":149,"output":150,"interpolation":"LINEAR"}],"channels":[{"sampler":0,"target":{"node":0,"path":"rotation"}},{"sampler":1,"target":{"node":1,"path":"rotation"}},{"sampler":2,"target":{"node":2,"path":"rotation"}},{"sampler":3,"target":{"node":3,"path":"rotation"}},{"sampler":4,"target":{"node":4,"path":"rotation"}},{"sampler":5,"target":{"node":5,"path":"rotation"}},{"sampler":6,"target":{"node":6,"path":"rotation"}},{"sampler":7,"target":{"node":7,"path":"rotation"}},{"sampler":8,"target":{"node":8,"path":"rotation"}},{"sampler":9,"target":{"node":9,"path":"rotation"}},{"sampler":10,"target":{"node":10,"path":"rotation"}},{"sampler":11,"target":{"node":11,"path":"rotation"}},{"sampler":12,"target":{"node":12,"path":"rotation"}},{"sampler":13,"target":{"node":13,"path":"rotation"}},{"sampler":14,"target":{"node":14,"path":"rotation"}},{"sampler":15,"target":{"node":15,"path":"rotation"}},{"sampler":16,"target":{"node":16,"path":"rotation"}},{"sampler":17,"target":{"node":17,"path":"rotation"}},{"sampler":18,"target":{"node":18,"path":"rotation"}},{"sampler":19,"target":{"node":19,"path":"rotation"}},{"sampler":20,"target":{"node":20,"path":"rotation"}},{"sampler":21,"target":{"node":21,"path":"rotation"}},{"sampler":22,"target":{"node":22,"path":"rotation"}},{"sampler":23,"target":{"node":23,"path":"rotation"}}]},{"name":"attack_a","samplers":[{"input":151,"output":152,"interpolation":"LINEAR"},{"input":153,"output":154,"interpolation":"LINEAR"},{"input":155,"output":156,"interpolation":"LINEAR"},{"input":157,"output":158,"interpolation":"LINEAR"},{"input":159,"output":160,"interpolation":"LINEAR"},{"input":161,"output":162,"interpolation":"LINEAR"},{"input":163,"output":164,"interpolation":"LINEAR"},{"input":165,"output":166,"interpolation":"LINEAR"},{"input":167,"output":168,"interpolation":"LINEAR"},{"input":169,"output":170,"interpolation":"LINEAR"},{"input":171,"output":172,"interpolation":"LINEAR"},{"input":173,"output":174,"interpolation":"LINEAR"},{"input":175,"output":176,"interpolation":"LINEAR"},{"input":177,"output":178,"interpolation":"LINEAR"},{"input":179,"output":180,"interpolation":"LINEAR"},{"input":181,"output":182,"interpolation":"LINEAR"},{"input":183,"output":184,"interpolation":"LINEAR"},{"input":185,"output":186,"interpolation":"LINEAR"},{"input":187,"output":188,"interpolation":"LINEAR"},{"input":189,"output":190,"interpolation":"LINEAR"},{"input":191,"output":192,"interpolation":"LINEAR"},{"input":193,"output":194,"interpolation":"LINEAR"},{"input":195,"output":196,"interpolation":"LINEAR"},{"input":197,"output":198,"interpolation":"LINEAR"}],"channels":[{"sampler":0,"target":{"node":0,"path":"rotation"}},{"sampler":1,"target":{"node":1,"path":"rotation"}},{"sampler":2,"target":{"node":2,"path":"rotation"}},{"sampler":3,"target":{"node":3,"path":"rotation"}},{"sampler":4,"target":{"node":4,"path":"rotation"}},{"sampler":5,"target":{"node":5,"path":"rotation"}},{"sampler":6,"target":{"node":6,"path":"rotation"}},{"sampler":7,"target":{"node":7,"path":"rotation"}},{"sampler":8,"target":{"node":8,"path":"rotation"}},{"sampler":9,"target":{"node":9,"path":"rotation"}},{"sampler":10,"target":{"node":10,"path":"rotation"}},{"sampler":11,"target":{"node":11,"path":"rotation"}},{"sampler":12,"target":{"node":12,"path":"rotation"}},{"sampler":13,"target":{"node":13,"path":"rotation"}},{"sampler":14,"target":{"node":14,"path":"rotation"}},{"sampler":15,"target":{"node":15,"path":"rotation"}},{"sampler":16,"target":{"node":16,"path":"rotation"}},{"sampler":17,"target":{"node":17,"path":"rotation"}},{"sampler":18,"target":{"node":18,"path":"rotation"}},{"sampler":19,"target":{"node":19,"path":"rotation"}},{"sampler":20,"target":{"node":20,"path":"rotation"}},{"sampler":21,"target":{"node":21,"path":"rotation"}},{"sampler":22,"target":{"node":22,"path":"rotation"}},{"sampler":23,"target":{"node":23,"path":"rotation"}}]},{"name":"attack_b","samplers":[{"input":199,"output":200,"interpolation":"LINEAR"},{"input":201,"output":202,"interpolation":"LINEAR"},{"input":203,"output":204,"interpolation":"LINEAR"},{"input":205,"output":206,"interpolation":"LINEAR"},{"input":207,"output":208,"interpolation":"LINEAR"},{"input":209,"output":210,"interpolation":"LINEAR"},{"input":211,"output":212,"interpolation":"LINEAR"},{"input":213,"output":214,"interpolation":"LINEAR"},{"input":215,"output":216,"interpolation":"LINEAR"},{"input":217,"output":218,"interpolation":"LINEAR"},{"input":219,"output":220,"interpolation":"LINEAR"},{"input":221,"output":222,"interpolation":"LINEAR"},{"input":223,"output":224,"interpolation":"LINEAR"},{"input":225,"output":226,"interpolation":"LINEAR"},{"input":227,"output":228,"interpolation":"LINEAR"},{"input":229,"output":230,"interpolation":"LINEAR"},{"input":231,"output":232,"interpolation":"LINEAR"},{"input":233,"output":234,"interpolation":"LINEAR"},{"input":235,"output":236,"interpolation":"LINEAR"},{"input":237,"output":238,"interpolation":"LINEAR"},{"input":239,"output":240,"interpolation":"LINEAR"},{"input":241,"output":242,"interpolation":"LINEAR"},{"input":243,"output":244,"interpolation":"LINEAR"},{"input":245,"output":246,"interpolation":"LINEAR"}],"channels":[{"sampler":0,"target":{"node":0,"path":"rotation"}},{"sampler":1,"target":{"node":1,"path":"rotation"}},{"sampler":2,"target":{"node":2,"path":"rotation"}},{"sampler":3,"target":{"node":3,"path":"rotation"}},{"sampler":4,"target":{"node":4,"path":"rotation"}},{"sampler":5,"target":{"node":5,"path":"rotation"}},{"sampler":6,"target":{"node":6,"path":"rotation"}},{"sampler":7,"target":{"node":7,"path":"rotation"}},{"sampler":8,"target":{"node":8,"path":"rotation"}},{"sampler":9,"target":{"node":9,"path":"rotation"}},{"sampler":10,"target":{"node":10,"path":"rotation"}},{"sampler":11,"target":{"node":11,"path":"rotation"}},{"sampler":12,"target":{"node":12,"path":"rotation"}},{"sampler":13,"target":{"node":13,"path":"rotation"}},{"sampler":14,"target":{"node":14,"path":"rotation"}},{"sampler":15,"target":{"node":15,"path":"rotation"}},{"sampler":16,"target":{"node":16,"path":"rotation"}},{"sampler":17,"target":{"node":17,"path":"rotation"}},{"sampler":18,"target":{"node":18,"path":"rotation"}},{"sampler":19,"target":{"node":19,"path":"rotation"}},{"sampler":20,"target":{"node":20,"path":"rotation"}},{"sampler":21,"target":{"node":21,"path":"rotation"}},{"sampler":22,"target":{"node":22,"path":"rotation"}},{"sampler":23,"target":{"node":23,"path":"rotation"}}]},{"name":"shoot","samplers":[{"input":247,"output":248,"interpolation":"LINEAR"},{"input":249,"output":250,"interpolation":"LINEAR"},{"input":251,"output":252,"interpolation":"LINEAR"},{"input":253,"output":254,"interpolation":"LINEAR"},{"input":255,"output":256,"interpolation":"LINEAR"},{"input":257,"output":258,"interpolation":"LINEAR"},{"input":259,"output":260,"interpolation":"LINEAR"},{"input":261,"output":262,"interpolation":"LINEAR"},{"input":263,"output":264,"interpolation":"LINEAR"},{"input":265,"output":266,"interpolation":"LINEAR"},{"input":267,"output":268,"interpolation":"LINEAR"},{"input":269,"output":270,"interpolation":"LINEAR"},{"input":271,"output":272,"interpolation":"LINEAR"},{"input":273,"output":274,"interpolation":"LINEAR"},{"input":275,"output":276,"interpolation":"LINEAR"},{"input":277,"output":278,"interpolation":"LINEAR"},{"input":279,"output":280,"interpolation":"LINEAR"},{"input":281,"output":282,"interpolation":"LINEAR"},{"input":283,"output":284,"interpolation":"LINEAR"},{"input":285,"output":286,"interpolation":"LINEAR"},{"input":287,"output":288,"interpolation":"LINEAR"},{"input":289,"output":290,"interpolation":"LINEAR"},{"input":291,"output":292,"interpolation":"LINEAR"},{"input":293,"output":294,"interpolation":"LINEAR"}],"channels":[{"sampler":0,"target":{"node":0,"path":"rotation"}},{"sampler":1,"target":{"node":1,"path":"rotation"}},{"sampler":2,"target":{"node":2,"path":"rotation"}},{"sampler":3,"target":{"node":3,"path":"rotation"}},{"sampler":4,"target":{"node":4,"path":"rotation"}},{"sampler":5,"target":{"node":5,"path":"rotation"}},{"sampler":6,"target":{"node":6,"path":"rotation"}},{"sampler":7,"target":{"node":7,"path":"rotation"}},{"sampler":8,"target":{"node":8,"path":"rotation"}},{"sampler":9,"target":{"node":9,"path":"rotation"}},{"sampler":10,"target":{"node":10,"path":"rotation"}},{"sampler":11,"target":{"node":11,"path":"rotation"}},{"sampler":12,"target":{"node":12,"path":"rotation"}},{"sampler":13,"target":{"node":13,"path":"rotation"}},{"sampler":14,"target":{"node":14,"path":"rotation"}},{"sampler":15,"target":{"node":15,"path":"rotation"}},{"sampler":16,"target":{"node":16,"path":"rotation"}},{"sampler":17,"target":{"node":17,"path":"rotation"}},{"sampler":18,"target":{"node":18,"path":"rotation"}},{"sampler":19,"target":{"node":19,"path":"rotation"}},{"sampler":20,"target":{"node":20,"path":"rotation"}},{"sampler":21,"target":{"node":21,"path":"rotation"}},{"sampler":22,"target":{"node":22,"path":"rotation"}},{"sampler":23,"target":{"node":23,"path":"rotation"}}]},{"name":"hit","samplers":[{"input":295,"output":296,"interpolation":"LINEAR"},{"input":297,"output":298,"interpolation":"LINEAR"},{"input":299,"output":300,"interpolation":"LINEAR"},{"input":301,"output":302,"interpolation":"LINEAR"},{"input":303,"output":304,"interpolation":"LINEAR"},{"input":305,"output":306,"interpolation":"LINEAR"},{"input":307,"output":308,"interpolation":"LINEAR"},{"input":309,"output":310,"interpolation":"LINEAR"},{"input":311,"output":312,"interpolation":"LINEAR"},{"input":313,"output":314,"interpolation":"LINEAR"},{"input":315,"output":316,"interpolation":"LINEAR"},{"input":317,"output":318,"interpolation":"LINEAR"},{"input":319,"output":320,"interpolation":"LINEAR"},{"input":321,"output":322,"interpolation":"LINEAR"},{"input":323,"output":324,"interpolation":"LINEAR"},{"input":325,"output":326,"interpolation":"LINEAR"},{"input":327,"output":328,"interpolation":"LINEAR"},{"input":329,"output":330,"interpolation":"LINEAR"},{"input":331,"output":332,"interpolation":"LINEAR"},{"input":333,"output":334,"interpolation":"LINEAR"},{"input":335,"output":336,"interpolation":"LINEAR"},{"input":337,"output":338,"interpolation":"LINEAR"},{"input":339,"output":340,"interpolation":"LINEAR"},{"input":341,"output":342,"interpolation":"LINEAR"}],"channels":[{"sampler":0,"target":{"node":0,"path":"rotation"}},{"sampler":1,"target":{"node":1,"path":"rotation"}},{"sampler":2,"target":{"node":2,"path":"rotation"}},{"sampler":3,"target":{"node":3,"path":"rotation"}},{"sampler":4,"target":{"node":4,"path":"rotation"}},{"sampler":5,"target":{"node":5,"path":"rotation"}},{"sampler":6,"target":{"node":6,"path":"rotation"}},{"sampler":7,"target":{"node":7,"path":"rotation"}},{"sampler":8,"target":{"node":8,"path":"rotation"}},{"sampler":9,"target":{"node":9,"path":"rotation"}},{"sampler":10,"target":{"node":10,"path":"rotation"}},{"sampler":11,"target":{"node":11,"path":"rotation"}},{"sampler":12,"target":{"node":12,"path":"rotation"}},{"sampler":13,"target":{"node":13,"path":"rotation"}},{"sampler":14,"target":{"node":14,"path":"rotation"}},{"sampler":15,"target":{"node":15,"path":"rotation"}},{"sampler":16,"target":{"node":16,"path":"rotation"}},{"sampler":17,"target":{"node":17,"path":"rotation"}},{"sampler":18,"target":{"node":18,"path":"rotation"}},{"sampler":19,"target":{"node":19,"path":"rotation"}},{"sampler":20,"target":{"node":20,"path":"rotation"}},{"sampler":21,"target":{"node":21,"path":"rotation"}},{"sampler":22,"target":{"node":22,"path":"rotation"}},{"sampler":23,"target":{"node":23,"path":"rotation"}}]},{"name":"block","samplers":[{"input":343,"output":344,"interpolation":"LINEAR"},{"input":345,"output":346,"interpolation":"LINEAR"},{"input":347,"output":348,"interpolation":"LINEAR"},{"input":349,"output":350,"interpolation":"LINEAR"},{"input":351,"output":352,"interpolation":"LINEAR"},{"input":353,"output":354,"interpolation":"LINEAR"},{"input":355,"output":356,"interpolation":"LINEAR"},{"input":357,"output":358,"interpolation":"LINEAR"},{"input":359,"output":360,"interpolation":"LINEAR"},{"input":361,"output":362,"interpolation":"LINEAR"},{"input":363,"output":364,"interpolation":"LINEAR"},{"input":365,"output":366,"interpolation":"LINEAR"},{"input":367,"output":368,"interpolation":"LINEAR"},{"input":369,"output":370,"interpolation":"LINEAR"},{"input":371,"output":372,"interpolation":"LINEAR"},{"input":373,"output":374,"interpolation":"LINEAR"},{"input":375,"output":376,"interpolation":"LINEAR"},{"input":377,"output":378,"interpolation":"LINEAR"},{"input":379,"output":380,"interpolation":"LINEAR"},{"input":381,"output":382,"interpolation":"LINEAR"},{"input":383,"output":384,"interpolation":"LINEAR"},{"input":385,"output":386,"interpolation":"LINEAR"},{"input":387,"output":388,"interpolation":"LINEAR"},{"input":389,"output":390,"interpolation":"LINEAR"}],"channels":[{"sampler":0,"target":{"node":0,"path":"rotation"}},{"sampler":1,"target":{"node":1,"path":"rotation"}},{"sampler":2,"target":{"node":2,"path":"rotation"}},{"sampler":3,"target":{"node":3,"path":"rotation"}},{"sampler":4,"target":{"node":4,"path":"rotation"}},{"sampler":5,"target":{"node":5,"path":"rotation"}},{"sampler":6,"target":{"node":6,"path":"rotation"}},{"sampler":7,"target":{"node":7,"path":"rotation"}},{"sampler":8,"target":{"node":8,"path":"rotation"}},{"sampler":9,"target":{"node":9,"path":"rotation"}},{"sampler":10,"target":{"node":10,"path":"rotation"}},{"sampler":11,"target":{"node":11,"path":"rotation"}},{"sampler":12,"target":{"node":12,"path":"rotation"}},{"sampler":13,"target":{"node":13,"path":"rotation"}},{"sampler":14,"target":{"node":14,"path":"rotation"}},{"sampler":15,"target":{"node":15,"path":"rotation"}},{"sampler":16,"target":{"node":16,"path":"rotation"}},{"sampler":17,"target":{"node":17,"path":"rotation"}},{"sampler":18,"target":{"node":18,"path":"rotation"}},{"sampler":19,"target":{"node":19,"path":"rotation"}},{"sampler":20,"target":{"node":20,"path":"rotation"}},{"sampler":21,"target":{"node":21,"path":"rotation"}},{"sampler":22,"target":{"node":22,"path":"rotation"}},{"sampler":23,"target":{"node":23,"path":"rotation"}}]},{"name":"knockback","samplers":[{"input":391,"output":392,"interpolation":"LINEAR"},{"input":393,"output":394,"interpolation":"LINEAR"},{"input":395,"output":396,"interpolation":"LINEAR"},{"input":397,"output":398,"interpolation":"LINEAR"},{"input":399,"output":400,"interpolation":"LINEAR"},{"input":401,"output":402,"interpolation":"LINEAR"},{"input":403,"output":404,"interpolation":"LINEAR"},{"input":405,"output":406,"interpolation":"LINEAR"},{"input":407,"output":408,"interpolation":"LINEAR"},{"input":409,"output":410,"interpolation":"LINEAR"},{"input":411,"output":412,"interpolation":"LINEAR"},{"input":413,"output":414,"interpolation":"LINEAR"},{"input":415,"output":416,"interpolation":"LINEAR"},{"input":417,"output":418,"interpolation":"LINEAR"},{"input":419,"output":420,"interpolation":"LINEAR"},{"input":421,"output":422,"interpolation":"LINEAR"},{"input":423,"output":424,"interpolation":"LINEAR"},{"input":425,"output":426,"interpolation":"LINEAR"},{"input":427,"output":428,"interpolation":"LINEAR"},{"input":429,"output":430,"interpolation":"LINEAR"},{"input":431,"output":432,"interpolation":"LINEAR"},{"input":433,"output":434,"interpolation":"LINEAR"},{"input":435,"output":436,"interpolation":"LINEAR"},{"input":437,"output":438,"interpolation":"LINEAR"}],"channels":[{"sampler":0,"target":{"node":0,"path":"rotation"}},{"sampler":1,"target":{"node":1,"path":"rotation"}},{"sampler":2,"target":{"node":2,"path":"rotation"}},{"sampler":3,"target":{"node":3,"path":"rotation"}},{"sampler":4,"target":{"node":4,"path":"rotation"}},{"sampler":5,"target":{"node":5,"path":"rotation"}},{"sampler":6,"target":{"node":6,"path":"rotation"}},{"sampler":7,"target":{"node":7,"path":"rotation"}},{"sampler":8,"target":{"node":8,"path":"rotation"}},{"sampler":9,"target":{"node":9,"path":"rotation"}},{"sampler":10,"target":{"node":10,"path":"rotation"}},{"sampler":11,"target":{"node":11,"path":"rotation"}},{"sampler":12,"target":{"node":12,"path":"rotation"}},{"sampler":13,"target":{"node":13,"path":"rotation"}},{"sampler":14,"target":{"node":14,"path":"rotation"}},{"sampler":15,"target":{"node":15,"path":"rotation"}},{"sampler":16,"target":{"node":16,"path":"rotation"}},{"sampler":17,"target":{"node":17,"path":"rotation"}},{"sampler":18,"target":{"node":18,"path":"rotation"}},{"sampler":19,"target":{"node":19,"path":"rotation"}},{"sampler":20,"target":{"node":20,"path":"rotation"}},{"sampler":21,"target":{"node":21,"path":"rotation"}},{"sampler":22,"target":{"node":22,"path":"rotation"}},{"sampler":23,"target":{"node":23,"path":"rotation"}}]},{"name":"defeat","samplers":[{"input":439,"output":440,"interpolation":"LINEAR"},{"input":441,"output":442,"interpolation":"LINEAR"},{"input":443,"output":444,"interpolation":"LINEAR"},{"input":445,"output":446,"interpolation":"LINEAR"},{"input":447,"output":448,"interpolation":"LINEAR"},{"input":449,"output":450,"interpolation":"LINEAR"},{"input":451,"output":452,"interpolation":"LINEAR"},{"input":453,"output":454,"interpolation":"LINEAR"},{"input":455,"output":456,"interpolation":"LINEAR"},{"input":457,"output":458,"interpolation":"LINEAR"},{"input":459,"output":460,"interpolation":"LINEAR"},{"input":461,"output":462,"interpolation":"LINEAR"},{"input":463,"output":464,"interpolation":"LINEAR"},{"input":465,"output":466,"interpolation":"LINEAR"},{"input":467,"output":468,"interpolation":"LINEAR"},{"input":469,"output":470,"interpolation":"LINEAR"},{"input":471,"output":472,"interpolation":"LINEAR"},{"input":473,"output":474,"interpolation":"LINEAR"},{"input":475,"output":476,"interpolation":"LINEAR"},{"input":477,"output":478,"interpolation":"LINEAR"},{"input":479,"output":480,"interpolation":"LINEAR"},{"input":481,"output":482,"interpolation":"LINEAR"},{"input":483,"output":484,"interpolation":"LINEAR"},{"input":485,"output":486,"interpolation":"LINEAR"}],"channels":[{"sampler":0,"target":{"node":0,"path":"rotation"}},{"sampler":1,"target":{"node":1,"path":"rotation"}},{"sampler":2,"target":{"node":2,"path":"rotation"}},{"sampler":3,"target":{"node":3,"path":"rotation"}},{"sampler":4,"target":{"node":4,"path":"rotation"}},{"sampler":5,"target":{"node":5,"path":"rotation"}},{"sampler":6,"target":{"node":6,"path":"rotation"}},{"sampler":7,"target":{"node":7,"path":"rotation"}},{"sampler":8,"target":{"node":8,"path":"rotation"}},{"sampler":9,"target":{"node":9,"path":"rotation"}},{"sampler":10,"target":{"node":10,"path":"rotation"}},{"sampler":11,"target":{"node":11,"path":"rotation"}},{"sampler":12,"target":{"node":12,"path":"rotation"}},{"sampler":13,"target":{"node":13,"path":"rotation"}},{"sampler":14,"target":{"node":14,"path":"rotation"}},{"sampler":15,"target":{"node":15,"path":"rotation"}},{"sampler":16,"target":{"node":16,"path":"rotation"}},{"sampler":17,"target":{"node":17,"path":"rotation"}},{"sampler":18,"target":{"node":18,"path":"rotation"}},{"sampler":19,"target":{"node":19,"path":"rotation"}},{"sampler":20,"target":{"node":20,"path":"rotation"}},{"sampler":21,"target":{"node":21,"path":"rotation"}},{"sampler":22,"target":{"node":22,"path":"rotation"}},{"sampler":23,"target":{"node":23,"path":"rotation"}}]},{"name":"cheer","samplers":[{"input":487,"output":488,"interpolation":"LINEAR"},{"input":489,"output":490,"interpolation":"LINEAR"},{"input":491,"output":492,"interpolation":"LINEAR"},{"input":493,"output":494,"interpolation":"LINEAR"},{"input":495,"output":496,"interpolation":"LINEAR"},{"input":497,"output":498,"interpolation":"LINEAR"},{"input":499,"output":500,"interpolation":"LINEAR"},{"input":501,"output":502,"interpolation":"LINEAR"},{"input":503,"output":504,"interpolation":"LINEAR"},{"input":505,"output":506,"interpolation":"LINEAR"},{"input":507,"output":508,"interpolation":"LINEAR"},{"input":509,"output":510,"interpolation":"LINEAR"},{"input":511,"output":512,"interpolation":"LINEAR"},{"input":513,"output":514,"interpolation":"LINEAR"},{"input":515,"output":516,"interpolation":"LINEAR"},{"input":517,"output":518,"interpolation":"LINEAR"},{"input":519,"output":520,"interpolation":"LINEAR"},{"input":521,"output":522,"interpolation":"LINEAR"},{"input":523,"output":524,"interpolation":"LINEAR"},{"input":525,"output":526,"interpolation":"LINEAR"},{"input":527,"output":528,"interpolation":"LINEAR"},{"input":529,"output":530,"interpolation":"LINEAR"},{"input":531,"output":532,"interpolation":"LINEAR"},{"input":533,"output":534,"interpolation":"LINEAR"}],"channels":[{"sampler":0,"target":{"node":0,"path":"rotation"}},{"sampler":1,"target":{"node":1,"path":"rotation"}},{"sampler":2,"target":{"node":2,"path":"rotation"}},{"sampler":3,"target":{"node":3,"path":"rotation"}},{"sampler":4,"target":{"node":4,"path":"rotation"}},{"sampler":5,"target":{"node":5,"path":"rotation"}},{"sampler":6,"target":{"node":6,"path":"rotation"}},{"sampler":7,"target":{"node":7,"path":"rotation"}},{"sampler":8,"target":{"node":8,"path":"rotation"}},{"sampler":9,"target":{"node":9,"path":"rotation"}},{"sampler":10,"target":{"node":10,"path":"rotation"}},{"sampler":11,"target":{"node":11,"path":"rotation"}},{"sampler":12,"target":{"node":12,"path":"rotation"}},{"sampler":13,"target":{"node":13,"path":"rotation"}},{"sampler":14,"target":{"node":14,"path":"rotation"}},{"sampler":15,"target":{"node":15,"path":"rotation"}},{"sampler":16,"target":{"node":16,"path":"rotation"}},{"sampler":17,"target":{"node":17,"path":"rotation"}},{"sampler":18,"target":{"node":18,"path":"rotation"}},{"sampler":19,"target":{"node":19,"path":"rotation"}},{"sampler":20,"target":{"node":20,"path":"rotation"}},{"sampler":21,"target":{"node":21,"path":"rotation"}},{"sampler":22,"target":{"node":22,"path":"rotation"}},{"sampler":23,"target":{"node":23,"path":"rotation"}}]}]}